<?xml version="1.0" encoding="UTF-8" standalone="no"?>
<!-- Created with Inkscape (http://www.inkscape.org/) -->

<svg
   xmlns:ns0="http://www.iki.fi/pav/software/textext/"
   xmlns:dc="http://purl.org/dc/elements/1.1/"
   xmlns:cc="http://creativecommons.org/ns#"
   xmlns:rdf="http://www.w3.org/1999/02/22-rdf-syntax-ns#"
   xmlns:svg="http://www.w3.org/2000/svg"
   xmlns="http://www.w3.org/2000/svg"
   xmlns:sodipodi="http://sodipodi.sourceforge.net/DTD/sodipodi-0.dtd"
   xmlns:inkscape="http://www.inkscape.org/namespaces/inkscape"
   sodipodi:docname="AllArrowIndvAndClassInfo.svg"
   inkscape:version="0.48.4 r9939"
   version="1.1"
   id="svg10930"
   height="402"
   width="622">
  <sodipodi:namedview
     id="base"
     pagecolor="#ffffff"
     bordercolor="#666666"
     borderopacity="1.0"
     inkscape:pageopacity="0.0"
     inkscape:pageshadow="2"
     inkscape:zoom="1.4"
     inkscape:cx="217.63571"
     inkscape:cy="195.56847"
     inkscape:document-units="px"
     inkscape:current-layer="layer1"
     showgrid="true"
     inkscape:window-width="1600"
     inkscape:window-height="834"
     inkscape:window-x="0"
     inkscape:window-y="27"
     inkscape:window-maximized="1"
     fit-margin-top="0"
     fit-margin-left="0"
     fit-margin-right="0"
     fit-margin-bottom="0">
    <inkscape:grid
       type="xygrid"
       id="grid10994"
       empspacing="5"
       visible="true"
       enabled="true"
       snapvisiblegridlinesonly="true"
       originx="-79px"
       originy="-469px" />
  </sodipodi:namedview>
  <defs
     id="defs10932">
    <inkscape:perspective
       sodipodi:type="inkscape:persp3d"
       inkscape:vp_x="0 : 526.18109 : 1"
       inkscape:vp_y="0 : 1000 : 0"
       inkscape:vp_z="744.09448 : 526.18109 : 1"
       inkscape:persp3d-origin="372.04724 : 350.78739 : 1"
       id="perspective10938" />
    <inkscape:perspective
       id="perspective10957"
       inkscape:persp3d-origin="0.5 : 0.33333333 : 1"
       inkscape:vp_z="1 : 0.5 : 1"
       inkscape:vp_y="0 : 1000 : 0"
       inkscape:vp_x="0 : 0.5 : 1"
       sodipodi:type="inkscape:persp3d" />
    <inkscape:perspective
       id="perspective6211"
       inkscape:persp3d-origin="0.5 : 0.33333333 : 1"
       inkscape:vp_z="1 : 0.5 : 1"
       inkscape:vp_y="0 : 1000 : 0"
       inkscape:vp_x="0 : 0.5 : 1"
       sodipodi:type="inkscape:persp3d" />
    <inkscape:perspective
       id="perspective2876"
       inkscape:persp3d-origin="0.5 : 0.33333333 : 1"
       inkscape:vp_z="1 : 0.5 : 1"
       inkscape:vp_y="0 : 1000 : 0"
       inkscape:vp_x="0 : 0.5 : 1"
       sodipodi:type="inkscape:persp3d" />
    <inkscape:perspective
       id="perspective3704"
       inkscape:persp3d-origin="0.5 : 0.33333333 : 1"
       inkscape:vp_z="1 : 0.5 : 1"
       inkscape:vp_y="0 : 1000 : 0"
       inkscape:vp_x="0 : 0.5 : 1"
       sodipodi:type="inkscape:persp3d" />
    <inkscape:perspective
       id="perspective3839"
       inkscape:persp3d-origin="0.5 : 0.33333333 : 1"
       inkscape:vp_z="1 : 0.5 : 1"
       inkscape:vp_y="0 : 1000 : 0"
       inkscape:vp_x="0 : 0.5 : 1"
       sodipodi:type="inkscape:persp3d" />
    <inkscape:perspective
       sodipodi:type="inkscape:persp3d"
       inkscape:vp_x="0 : 0.5 : 1"
       inkscape:vp_y="0 : 1000 : 0"
       inkscape:vp_z="1 : 0.5 : 1"
       inkscape:persp3d-origin="0.5 : 0.33333333 : 1"
       id="perspective4655" />
    <inkscape:perspective
       sodipodi:type="inkscape:persp3d"
       inkscape:vp_x="0 : 0.5 : 1"
       inkscape:vp_y="0 : 1000 : 0"
       inkscape:vp_z="1 : 0.5 : 1"
       inkscape:persp3d-origin="0.5 : 0.33333333 : 1"
       id="perspective4677" />
    <inkscape:perspective
       id="perspective4800"
       inkscape:persp3d-origin="0.5 : 0.33333333 : 1"
       inkscape:vp_z="1 : 0.5 : 1"
       inkscape:vp_y="0 : 1000 : 0"
       inkscape:vp_x="0 : 0.5 : 1"
       sodipodi:type="inkscape:persp3d" />
    <inkscape:perspective
       id="perspective4822"
       inkscape:persp3d-origin="0.5 : 0.33333333 : 1"
       inkscape:vp_z="1 : 0.5 : 1"
       inkscape:vp_y="0 : 1000 : 0"
       inkscape:vp_x="0 : 0.5 : 1"
       sodipodi:type="inkscape:persp3d" />
    <inkscape:perspective
       id="perspective4844"
       inkscape:persp3d-origin="0.5 : 0.33333333 : 1"
       inkscape:vp_z="1 : 0.5 : 1"
       inkscape:vp_y="0 : 1000 : 0"
       inkscape:vp_x="0 : 0.5 : 1"
       sodipodi:type="inkscape:persp3d" />
    <inkscape:perspective
       id="perspective4866"
       inkscape:persp3d-origin="0.5 : 0.33333333 : 1"
       inkscape:vp_z="1 : 0.5 : 1"
       inkscape:vp_y="0 : 1000 : 0"
       inkscape:vp_x="0 : 0.5 : 1"
       sodipodi:type="inkscape:persp3d" />
    <inkscape:perspective
       id="perspective4866-3"
       inkscape:persp3d-origin="0.5 : 0.33333333 : 1"
       inkscape:vp_z="1 : 0.5 : 1"
       inkscape:vp_y="0 : 1000 : 0"
       inkscape:vp_x="0 : 0.5 : 1"
       sodipodi:type="inkscape:persp3d" />
    <inkscape:perspective
       id="perspective4866-1"
       inkscape:persp3d-origin="0.5 : 0.33333333 : 1"
       inkscape:vp_z="1 : 0.5 : 1"
       inkscape:vp_y="0 : 1000 : 0"
       inkscape:vp_x="0 : 0.5 : 1"
       sodipodi:type="inkscape:persp3d" />
    <inkscape:perspective
       id="perspective4906"
       inkscape:persp3d-origin="0.5 : 0.33333333 : 1"
       inkscape:vp_z="1 : 0.5 : 1"
       inkscape:vp_y="0 : 1000 : 0"
       inkscape:vp_x="0 : 0.5 : 1"
       sodipodi:type="inkscape:persp3d" />
    <inkscape:perspective
       id="perspective4928"
       inkscape:persp3d-origin="0.5 : 0.33333333 : 1"
       inkscape:vp_z="1 : 0.5 : 1"
       inkscape:vp_y="0 : 1000 : 0"
       inkscape:vp_x="0 : 0.5 : 1"
       sodipodi:type="inkscape:persp3d" />
    <inkscape:perspective
       id="perspective4950"
       inkscape:persp3d-origin="0.5 : 0.33333333 : 1"
       inkscape:vp_z="1 : 0.5 : 1"
       inkscape:vp_y="0 : 1000 : 0"
       inkscape:vp_x="0 : 0.5 : 1"
       sodipodi:type="inkscape:persp3d" />
    <inkscape:perspective
       sodipodi:type="inkscape:persp3d"
       inkscape:vp_x="0 : 0.5 : 1"
       inkscape:vp_y="0 : 1000 : 0"
       inkscape:vp_z="1 : 0.5 : 1"
       inkscape:persp3d-origin="0.5 : 0.33333333 : 1"
       id="perspective5112" />
    <inkscape:perspective
       id="perspective5298"
       inkscape:persp3d-origin="0.5 : 0.33333333 : 1"
       inkscape:vp_z="1 : 0.5 : 1"
       inkscape:vp_y="0 : 1000 : 0"
       inkscape:vp_x="0 : 0.5 : 1"
       sodipodi:type="inkscape:persp3d" />
    <inkscape:perspective
       id="perspective5298-1"
       inkscape:persp3d-origin="0.5 : 0.33333333 : 1"
       inkscape:vp_z="1 : 0.5 : 1"
       inkscape:vp_y="0 : 1000 : 0"
       inkscape:vp_x="0 : 0.5 : 1"
       sodipodi:type="inkscape:persp3d" />
    <inkscape:perspective
       id="perspective5329"
       inkscape:persp3d-origin="0.5 : 0.33333333 : 1"
       inkscape:vp_z="1 : 0.5 : 1"
       inkscape:vp_y="0 : 1000 : 0"
       inkscape:vp_x="0 : 0.5 : 1"
       sodipodi:type="inkscape:persp3d" />
    <inkscape:perspective
       id="perspective6125"
       inkscape:persp3d-origin="0.5 : 0.33333333 : 1"
       inkscape:vp_z="1 : 0.5 : 1"
       inkscape:vp_y="0 : 1000 : 0"
       inkscape:vp_x="0 : 0.5 : 1"
       sodipodi:type="inkscape:persp3d" />
    <inkscape:perspective
       sodipodi:type="inkscape:persp3d"
       inkscape:vp_x="0 : 0.5 : 1"
       inkscape:vp_y="0 : 1000 : 0"
       inkscape:vp_z="1 : 0.5 : 1"
       inkscape:persp3d-origin="0.5 : 0.33333333 : 1"
       id="perspective6331" />
    <inkscape:perspective
       sodipodi:type="inkscape:persp3d"
       inkscape:vp_x="0 : 0.5 : 1"
       inkscape:vp_y="0 : 1000 : 0"
       inkscape:vp_z="1 : 0.5 : 1"
       inkscape:persp3d-origin="0.5 : 0.33333333 : 1"
       id="perspective6331-1" />
    <inkscape:perspective
       sodipodi:type="inkscape:persp3d"
       inkscape:vp_x="0 : 0.5 : 1"
       inkscape:vp_y="0 : 1000 : 0"
       inkscape:vp_z="1 : 0.5 : 1"
       inkscape:persp3d-origin="0.5 : 0.33333333 : 1"
       id="perspective6362" />
    <inkscape:perspective
       id="perspective6589"
       inkscape:persp3d-origin="0.5 : 0.33333333 : 1"
       inkscape:vp_z="1 : 0.5 : 1"
       inkscape:vp_y="0 : 1000 : 0"
       inkscape:vp_x="0 : 0.5 : 1"
       sodipodi:type="inkscape:persp3d" />
    <inkscape:perspective
       sodipodi:type="inkscape:persp3d"
       inkscape:vp_x="0 : 0.5 : 1"
       inkscape:vp_y="0 : 1000 : 0"
       inkscape:vp_z="1 : 0.5 : 1"
       inkscape:persp3d-origin="0.5 : 0.33333333 : 1"
       id="perspective3709" />
    <inkscape:perspective
       id="perspective4910"
       inkscape:persp3d-origin="0.5 : 0.33333333 : 1"
       inkscape:vp_z="1 : 0.5 : 1"
       inkscape:vp_y="0 : 1000 : 0"
       inkscape:vp_x="0 : 0.5 : 1"
       sodipodi:type="inkscape:persp3d" />
    <inkscape:perspective
       id="perspective4932"
       inkscape:persp3d-origin="0.5 : 0.33333333 : 1"
       inkscape:vp_z="1 : 0.5 : 1"
       inkscape:vp_y="0 : 1000 : 0"
       inkscape:vp_x="0 : 0.5 : 1"
       sodipodi:type="inkscape:persp3d" />
    <inkscape:perspective
       id="perspective3216"
       inkscape:persp3d-origin="0.5 : 0.33333333 : 1"
       inkscape:vp_z="1 : 0.5 : 1"
       inkscape:vp_y="0 : 1000 : 0"
       inkscape:vp_x="0 : 0.5 : 1"
       sodipodi:type="inkscape:persp3d" />
    <inkscape:perspective
       id="perspective5972"
       inkscape:persp3d-origin="0.5 : 0.33333333 : 1"
       inkscape:vp_z="1 : 0.5 : 1"
       inkscape:vp_y="0 : 1000 : 0"
       inkscape:vp_x="0 : 0.5 : 1"
       sodipodi:type="inkscape:persp3d" />
    <inkscape:perspective
       id="perspective5972-7"
       inkscape:persp3d-origin="0.5 : 0.33333333 : 1"
       inkscape:vp_z="1 : 0.5 : 1"
       inkscape:vp_y="0 : 1000 : 0"
       inkscape:vp_x="0 : 0.5 : 1"
       sodipodi:type="inkscape:persp3d" />
    <inkscape:perspective
       id="perspective6033"
       inkscape:persp3d-origin="0.5 : 0.33333333 : 1"
       inkscape:vp_z="1 : 0.5 : 1"
       inkscape:vp_y="0 : 1000 : 0"
       inkscape:vp_x="0 : 0.5 : 1"
       sodipodi:type="inkscape:persp3d" />
    <inkscape:perspective
       id="perspective6076"
       inkscape:persp3d-origin="0.5 : 0.33333333 : 1"
       inkscape:vp_z="1 : 0.5 : 1"
       inkscape:vp_y="0 : 1000 : 0"
       inkscape:vp_x="0 : 0.5 : 1"
       sodipodi:type="inkscape:persp3d" />
    <inkscape:perspective
       id="perspective13731"
       inkscape:persp3d-origin="0.5 : 0.33333333 : 1"
       inkscape:vp_z="1 : 0.5 : 1"
       inkscape:vp_y="0 : 1000 : 0"
       inkscape:vp_x="0 : 0.5 : 1"
       sodipodi:type="inkscape:persp3d" />
    <inkscape:perspective
       id="perspective15007"
       inkscape:persp3d-origin="0.5 : 0.33333333 : 1"
       inkscape:vp_z="1 : 0.5 : 1"
       inkscape:vp_y="0 : 1000 : 0"
       inkscape:vp_x="0 : 0.5 : 1"
       sodipodi:type="inkscape:persp3d" />
    <inkscape:perspective
       id="perspective15360"
       inkscape:persp3d-origin="0.5 : 0.33333333 : 1"
       inkscape:vp_z="1 : 0.5 : 1"
       inkscape:vp_y="0 : 1000 : 0"
       inkscape:vp_x="0 : 0.5 : 1"
       sodipodi:type="inkscape:persp3d" />
    <inkscape:perspective
       id="perspective15424"
       inkscape:persp3d-origin="0.5 : 0.33333333 : 1"
       inkscape:vp_z="1 : 0.5 : 1"
       inkscape:vp_y="0 : 1000 : 0"
       inkscape:vp_x="0 : 0.5 : 1"
       sodipodi:type="inkscape:persp3d" />
    <inkscape:perspective
       id="perspective19727"
       inkscape:persp3d-origin="0.5 : 0.33333333 : 1"
       inkscape:vp_z="1 : 0.5 : 1"
       inkscape:vp_y="0 : 1000 : 0"
       inkscape:vp_x="0 : 0.5 : 1"
       sodipodi:type="inkscape:persp3d" />
    <marker
       inkscape:stockid="Arrow2LendN"
       orient="auto"
       refY="0"
       refX="0"
       id="Arrow2LendN-6"
       style="overflow:visible">
      <path
         id="path3068-8"
         style="font-size:12px;fill:#008000;fill-rule:evenodd;stroke:#008000;stroke-width:0.625;stroke-linejoin:round"
         d="M 8.7185878,4.0337352 -2.2072895,0.01601326 8.7185884,-4.0017078 c -1.7454984,2.3720609 -1.7354408,5.6174519 -6e-7,8.035443 z"
         transform="matrix(-1.1,0,0,-1.1,-1.1,0)"
         inkscape:connector-curvature="0" />
    </marker>
  </defs>
  <metadata
     id="metadata10935">
    <rdf:RDF>
      <cc:Work
         rdf:about="">
        <dc:format>image/svg+xml</dc:format>
        <dc:type
           rdf:resource="http://purl.org/dc/dcmitype/StillImage" />
        <dc:title></dc:title>
      </cc:Work>
    </rdf:RDF>
  </metadata>
  <g
     inkscape:label="Layer 1"
     inkscape:groupmode="layer"
     id="layer1"
     transform="translate(-79,-181.36218)">
    <path
       transform="matrix(0.91304358,0,0,1.0243903,50.652154,-179.56985)"
       d="m 311.42857,450.93362 c 0,32.34811 -29.42129,58.57143 -65.71429,58.57143 -36.293,0 -65.71429,-26.22332 -65.71429,-58.57143 0,-32.3481 29.42129,-58.57143 65.71429,-58.57143 36.293,0 65.71429,26.22333 65.71429,58.57143 z"
       sodipodi:ry="58.57143"
       sodipodi:rx="65.714287"
       sodipodi:cy="450.93362"
       sodipodi:cx="245.71428"
       id="path2816-0"
       style="fill:none;stroke:#0000ff;stroke-width:2.06800485;stroke-miterlimit:4;stroke-opacity:1;stroke-dasharray:none"
       sodipodi:type="arc" />
    <rect
       y="182.36218"
       x="80"
       height="400"
       width="620"
       id="rect2927"
       style="fill:none;stroke:#000001;stroke-width:1.99999964;stroke-miterlimit:4;stroke-opacity:1;stroke-dasharray:none;stroke-dashoffset:0" />
    <path
       transform="matrix(0.91304358,0,0,1.0243903,358.11715,-179.56985)"
       d="m 311.42857,450.93362 c 0,32.34811 -29.42129,58.57143 -65.71429,58.57143 -36.293,0 -65.71429,-26.22332 -65.71429,-58.57143 0,-32.3481 29.42129,-58.57143 65.71429,-58.57143 36.293,0 65.71429,26.22333 65.71429,58.57143 z"
       sodipodi:ry="58.57143"
       sodipodi:rx="65.714287"
       sodipodi:cy="450.93362"
       sodipodi:cx="245.71428"
       id="path2816-0-1"
       style="fill:none;stroke:#0000ff;stroke-width:2.06800485;stroke-miterlimit:4;stroke-opacity:1;stroke-dasharray:none"
       sodipodi:type="arc" />
    <rect
       y="202.36218"
       x="542.46497"
       height="29.999992"
       width="80"
       id="rect5461-8"
       style="opacity:0.7;fill:#ffffff;fill-opacity:1;stroke:none" />
    <rect
       y="201.33221"
       x="232"
       height="29.999992"
       width="80"
       id="rect5461"
       style="opacity:0.7;fill:#ffffff;fill-opacity:1;stroke:none" />
    <g
       id="content"
       transform="matrix(3,0,0,-3,-442.96,2343.7522)"
       xml:space="preserve"
       stroke-miterlimit="10.433"
       font-style="normal"
       font-variant="normal"
       font-weight="normal"
       font-stretch="normal"
       font-size-adjust="none"
       letter-spacing="normal"
       word-spacing="normal"
       ns0:text="$\\mathsf{Module}$"
       ns0:preamble=""
       style="font-style:normal;font-variant:normal;font-weight:normal;font-stretch:normal;letter-spacing:normal;word-spacing:normal;text-anchor:start;fill:#0000ff;fill-opacity:1;fill-rule:evenodd;stroke:#000000;stroke-linecap:butt;stroke-linejoin:miter;stroke-miterlimit:10.43299961;stroke-opacity:1;stroke-dasharray:none;stroke-dashoffset:0"><path
         style="fill:#0000ff;stroke-width:0"
         d="m 228.71,710.66 -0.06,-0.18 -0.07,-0.17 -0.07,-0.19 -0.07,-0.19 -0.07,-0.18 -0.07,-0.19 -0.07,-0.19 -0.07,-0.18 -0.06,-0.18 -0.03,-0.08 -0.03,-0.09 -0.03,-0.08 -0.03,-0.08 -0.02,-0.08 -0.03,-0.07 -0.02,-0.07 -0.03,-0.07 -0.02,-0.07 -0.01,-0.06 -0.02,-0.06 -0.02,-0.05 -0.01,-0.05 -0.01,-0.05 h -0.01 c -0.05,0.21 -0.17,0.58 -0.32,1 l -1.57,4.12 -0.34,0.86 h -1.12 v -6.9 h 0.78 v 6.16 h 0.01 c 0.06,-0.31 0.46,-1.4 0.71,-2.07 l 1.48,-3.88 h 0.73 l 1.32,3.47 c 0.32,0.81 0.41,1.06 0.48,1.26 0.1,0.29 0.37,1.01 0.42,1.23 l 0.01,-0.01 v -6.16 h 0.78 v 6.9 h -1.14 z"
         id="path13531"
         inkscape:connector-curvature="0" /><path
         style="fill:#0000ff;stroke-width:0"
         d="m 236.82,709.32 0,0.12 -0.01,0.12 -0.01,0.12 -0.02,0.12 -0.03,0.12 -0.03,0.11 -0.03,0.11 -0.04,0.11 -0.04,0.11 -0.05,0.1 -0.06,0.1 -0.05,0.1 -0.07,0.09 -0.06,0.09 -0.07,0.09 -0.07,0.08 -0.08,0.08 -0.08,0.08 -0.08,0.07 -0.09,0.07 -0.09,0.06 -0.09,0.06 -0.09,0.05 -0.1,0.05 -0.1,0.04 -0.1,0.04 -0.1,0.03 -0.1,0.02 -0.11,0.03 -0.11,0.01 -0.11,0.01 -0.11,0 -0.01,-0.6 c 0.7,0 1.42,-0.52 1.42,-1.7 0,-1.17 -0.68,-1.76 -1.42,-1.76 h 0 c -0.69,0 -1.4,0.56 -1.4,1.76 0,1.21 0.75,1.7 1.4,1.7 l 0.01,0.6 c -1.23,0 -2.19,-1.09 -2.19,-2.39 0,-1.32 1.01,-2.3 2.18,-2.3 1.2,0 2.19,1 2.19,2.3 z"
         id="path13533"
         inkscape:connector-curvature="0" /><path
         style="fill:#0000ff;stroke-width:0"
         d="m 241.74,714.03 h -0.75 v -2.92 c -0.53,0.43 -1.09,0.54 -1.46,0.54 -0.98,0 -1.76,-1.03 -1.76,-2.32 0,-1.3 0.77,-2.31 1.71,-2.31 0.33,0 0.92,0.08 1.48,0.62 l -0.33,0.26 c -0.23,-0.2 -0.48,-0.28 -0.74,-0.28 -0.62,0 -1.34,0.47 -1.34,1.7 0,1.32 0.85,1.73 1.44,1.73 0.45,0 0.75,-0.23 0.97,-0.55 v -1.99 c 0,-0.14 -0.01,-0.32 -0.33,-0.61 l 0.33,-0.26 v -0.51 h 0.78 z"
         id="path13535"
         inkscape:connector-curvature="0" /><path
         style="fill:#0000ff;stroke-width:0"
         d="m 246.89,711.54 h -0.77 v -2.88 c 0,-0.75 -0.56,-1.1 -1.2,-1.1 -0.71,0 -0.78,0.26 -0.78,0.69 v 3.29 h -0.77 v -3.33 c 0,-0.72 0.22,-1.19 1.05,-1.19 0.53,0 1.24,0.15 1.73,0.58 v -0.47 h 0.74 z"
         id="path13537"
         inkscape:connector-curvature="0" /><polygon
         style="fill:#0000ff;stroke-width:0"
         points="249.26,707.13 249.26,714.03 248.51,714.03 248.51,707.13 "
         id="polygon13539" /><path
         style="fill:#0000ff;stroke-width:0"
         d="m 254.21,709.3 0,0.04 0,0.03 0,0.04 0,0.04 0,0.04 0,0.04 0,0.05 -0.01,0.05 0,0.04 0,0.05 -0.01,0.06 0,0.05 -0.01,0.05 0,0.06 -0.01,0.05 -0.01,0.06 -0.01,0.06 -0.01,0.05 -0.02,0.06 -0.01,0.06 -0.02,0.06 -0.01,0.06 -0.02,0.06 -0.02,0.06 -0.02,0.06 -0.03,0.06 -0.02,0.06 -0.03,0.06 -0.03,0.06 -0.03,0.05 -0.03,0.06 -0.04,0.06 c -0.41,0.61 -1.01,0.72 -1.37,0.72 -1.11,0 -2.01,-1.05 -2.01,-2.34 0,-1.31 0.96,-2.35 2.16,-2.35 0.62,0 1.19,0.23 1.58,0.51 l -0.06,0.65 c -0.63,-0.52 -1.28,-0.56 -1.51,-0.56 -0.8,0 -1.44,0.71 -1.47,1.68 l 0.05,0.55 c 0.16,0.76 0.69,1.26 1.26,1.26 0.52,0 1.07,-0.34 1.2,-1.26 h -2.46 l -0.05,-0.55 z"
         id="path13541"
         inkscape:connector-curvature="0" /></g>    <g
       style="font-style:normal;font-variant:normal;font-weight:normal;font-stretch:normal;letter-spacing:normal;word-spacing:normal;text-anchor:start;fill:#0000ff;fill-opacity:1;fill-rule:evenodd;stroke:#000000;stroke-linecap:butt;stroke-linejoin:miter;stroke-miterlimit:10.43299961;stroke-opacity:1;stroke-dasharray:none;stroke-dashoffset:0"
       ns0:preamble=""
       ns0:text="$\\mathsf{Degree}$"
       word-spacing="normal"
       letter-spacing="normal"
       font-size-adjust="none"
       font-stretch="normal"
       font-weight="normal"
       font-variant="normal"
       font-style="normal"
       stroke-miterlimit="10.433"
       xml:space="preserve"
       transform="matrix(3,0,0,-3,-132.105,2343.7522)"
       id="g13652"><path
         id="path13654"
         d="m 224.39,714.03 v -6.9 h 2.62 c 1.7,0 3.05,1.51 3.05,3.39 0,1.93 -1.35,3.51 -3.06,3.51 l -0.23,-0.56 c 1.4,0 2.43,-1.2 2.43,-2.95 0,-1.69 -1.03,-2.84 -2.43,-2.84 h -1.52 v 5.79 h 1.52 l 0.23,0.56 z"
         style="fill:#0000ff;stroke-width:0"
         inkscape:connector-curvature="0" /><path
         id="path13656"
         d="m 234.75,709.3 0,0.04 0,0.03 0,0.04 0,0.04 0,0.04 0,0.04 0,0.05 0,0.05 -0.01,0.04 0,0.05 0,0.06 -0.01,0.05 -0.01,0.05 0,0.06 -0.01,0.05 -0.01,0.06 -0.01,0.06 -0.01,0.05 -0.01,0.06 -0.02,0.06 -0.01,0.06 -0.02,0.06 -0.02,0.06 -0.02,0.06 -0.02,0.06 -0.02,0.06 -0.03,0.06 -0.03,0.06 -0.03,0.06 -0.03,0.05 -0.03,0.06 -0.04,0.06 c -0.4,0.61 -1.01,0.72 -1.37,0.72 -1.11,0 -2,-1.05 -2,-2.34 0,-1.31 0.95,-2.35 2.15,-2.35 0.63,0 1.19,0.23 1.58,0.51 l -0.06,0.65 c -0.62,-0.52 -1.28,-0.56 -1.51,-0.56 -0.8,0 -1.44,0.71 -1.47,1.68 l 0.05,0.55 c 0.16,0.76 0.69,1.26 1.26,1.26 0.52,0 1.08,-0.34 1.21,-1.26 h -2.47 l -0.05,-0.55 z"
         style="fill:#0000ff;stroke-width:0"
         inkscape:connector-curvature="0" /><path
         id="path13658"
         d="m 238.56,711.02 0.04,0 0.05,0 0.04,0 0.05,0 0.04,0.01 0.05,0 0.05,0 0.04,0.01 0.1,0 0.05,0.01 0.05,0 0.04,0 0.05,0 0.05,0.01 0.04,0 c 0.18,0 0.57,-0.03 0.59,-0.03 l -0.11,0.62 c -0.7,0 -1.28,-0.19 -1.58,-0.31 -0.21,0.16 -0.54,0.31 -0.94,0.31 v -0.56 c 0.43,0 0.89,-0.28 0.89,-1.06 0,-0.77 -0.46,-1.05 -0.89,-1.05 h 0 c -0.37,0 -0.89,0.23 -0.89,1.05 0,0.83 0.52,1.06 0.89,1.06 v 0.56 c -0.86,0 -1.59,-0.71 -1.59,-1.62 0,-0.37 0.13,-0.73 0.33,-0.98 -0.29,-0.41 -0.29,-0.8 -0.29,-0.85 0,-0.26 0.09,-0.55 0.26,-0.76 -0.52,-0.3 -0.64,-0.76 -0.64,-1.02 0,-0.75 0.99,-1.34 2.21,-1.34 l 0.01,0.56 c -0.81,0 -1.52,0.31 -1.52,0.78 0,0.03 0,0.67 0.78,0.67 h 0.9 c 0.22,0 1.34,0 1.34,-0.68 0,-0.44 -0.69,-0.77 -1.5,-0.77 l -0.01,-0.56 c 1.22,0 2.21,0.58 2.21,1.35 0,1.38 -1.66,1.38 -2.05,1.38 h -0.88 c -0.13,0 -0.58,0 -0.58,0.53 0,0.11 0.04,0.27 0.11,0.36 0.21,-0.15 0.54,-0.29 0.91,-0.29 0.89,0 1.59,0.74 1.59,1.62 0,0.48 -0.22,0.85 -0.33,1 z"
         style="fill:#0000ff;stroke-width:0"
         inkscape:connector-curvature="0" /><path
         id="path13660"
         d="m 241.6,709.26 0,0.09 0.01,0.09 0.01,0.09 0.01,0.08 0.02,0.09 0.02,0.08 0.03,0.08 0.03,0.08 0.03,0.08 0.04,0.07 0.04,0.08 0.04,0.06 0.05,0.07 0.04,0.07 0.06,0.06 0.05,0.06 0.06,0.05 0.06,0.06 0.06,0.05 0.07,0.04 0.07,0.05 0.07,0.04 0.07,0.03 0.08,0.04 0.08,0.03 0.08,0.02 0.08,0.03 0.08,0.02 0.09,0.01 0.08,0.02 0.09,0 0.09,0.01 v 0.66 c -0.88,-0.01 -1.43,-0.49 -1.74,-0.95 v 0.9 h -0.7 v -4.47 h 0.75 z"
         style="fill:#0000ff;stroke-width:0"
         inkscape:connector-curvature="0" /><path
         id="path13662"
         d="m 247.57,709.3 0,0.04 0,0.03 0,0.04 0,0.04 -0.01,0.04 0,0.04 0,0.05 0,0.05 0,0.04 -0.01,0.05 0,0.06 -0.01,0.05 0,0.05 -0.01,0.06 -0.01,0.05 -0.01,0.06 -0.01,0.06 -0.01,0.05 -0.01,0.06 -0.01,0.06 -0.02,0.06 -0.02,0.06 -0.02,0.06 -0.02,0.06 -0.02,0.06 -0.02,0.06 -0.03,0.06 -0.02,0.06 -0.03,0.06 -0.03,0.05 -0.04,0.06 -0.03,0.06 c -0.41,0.61 -1.02,0.72 -1.38,0.72 -1.1,0 -2,-1.05 -2,-2.34 0,-1.31 0.96,-2.35 2.15,-2.35 0.63,0 1.2,0.23 1.59,0.51 l -0.06,0.65 c -0.63,-0.52 -1.29,-0.56 -1.52,-0.56 -0.8,0 -1.43,0.71 -1.46,1.68 l 0.05,0.55 c 0.16,0.76 0.68,1.26 1.25,1.26 0.52,0 1.08,-0.34 1.21,-1.26 h -2.46 l -0.05,-0.55 z"
         style="fill:#0000ff;stroke-width:0"
         inkscape:connector-curvature="0" /><path
         id="path13664"
         d="m 251.99,709.3 0,0.04 0,0.03 0,0.04 0,0.04 0,0.04 0,0.04 0,0.05 0,0.05 -0.01,0.04 0,0.05 0,0.06 -0.01,0.05 -0.01,0.05 0,0.06 -0.01,0.05 -0.01,0.06 -0.01,0.06 -0.01,0.05 -0.01,0.06 -0.02,0.06 -0.01,0.06 -0.02,0.06 -0.02,0.06 -0.02,0.06 -0.02,0.06 -0.02,0.06 -0.03,0.06 -0.03,0.06 -0.03,0.06 -0.03,0.05 -0.03,0.06 -0.03,0.06 c -0.41,0.61 -1.02,0.72 -1.38,0.72 -1.11,0 -2,-1.05 -2,-2.34 0,-1.31 0.95,-2.35 2.15,-2.35 0.63,0 1.2,0.23 1.58,0.51 l -0.06,0.65 c -0.62,-0.52 -1.28,-0.56 -1.51,-0.56 -0.8,0 -1.44,0.71 -1.47,1.68 l 0.05,0.55 c 0.16,0.76 0.69,1.26 1.26,1.26 0.52,0 1.08,-0.34 1.21,-1.26 h -2.47 l -0.05,-0.55 z"
         style="fill:#0000ff;stroke-width:0"
         inkscape:connector-curvature="0" /></g>    <path
       transform="matrix(0.91304358,0,0,1.0243903,358.11715,6.430153)"
       d="m 311.42857,450.93362 c 0,32.34811 -29.42129,58.57143 -65.71429,58.57143 -36.293,0 -65.71429,-26.22332 -65.71429,-58.57143 0,-32.3481 29.42129,-58.57143 65.71429,-58.57143 36.293,0 65.71429,26.22333 65.71429,58.57143 z"
       sodipodi:ry="58.57143"
       sodipodi:rx="65.714287"
       sodipodi:cy="450.93362"
       sodipodi:cx="245.71428"
       id="path2816-0-1-1"
       style="fill:none;stroke:#0000ff;stroke-width:2.06800485;stroke-miterlimit:4;stroke-opacity:1;stroke-dasharray:none"
       sodipodi:type="arc" />
    <rect
       y="388.36218"
       x="542.46497"
       height="29.999992"
       width="80"
       id="rect5461-8-5"
       style="opacity:0.7;fill:#ffffff;fill-opacity:1;stroke:none" />
    <g
       style="font-style:normal;font-variant:normal;font-weight:normal;font-stretch:normal;letter-spacing:normal;word-spacing:normal;text-anchor:start;fill:#0000ff;fill-opacity:1;fill-rule:evenodd;stroke:#000000;stroke-linecap:butt;stroke-linejoin:miter;stroke-miterlimit:10.43299961;stroke-opacity:1;stroke-dasharray:none;stroke-dashoffset:0"
       ns0:preamble=""
       ns0:text="$\\mathsf{PositiveInteger}$"
       word-spacing="normal"
       letter-spacing="normal"
       font-size-adjust="none"
       font-stretch="normal"
       font-weight="normal"
       font-variant="normal"
       font-style="normal"
       stroke-miterlimit="10.433"
       xml:space="preserve"
       transform="matrix(3,0,0,-3,-180.57,2529.7522)"
       id="g14028"><path
         id="path14030"
         d="m 226.94,710 0.12,0 0.11,0.01 0.11,0.01 0.11,0.02 0.11,0.02 0.11,0.03 0.11,0.03 0.1,0.04 0.1,0.04 0.1,0.05 0.1,0.04 0.09,0.06 0.09,0.05 0.09,0.06 0.08,0.07 0.08,0.06 0.08,0.07 0.07,0.08 0.07,0.07 0.06,0.08 0.06,0.08 0.06,0.09 0.05,0.09 0.05,0.09 0.04,0.09 0.04,0.09 0.03,0.1 0.03,0.1 0.02,0.09 0.01,0.11 0.01,0.1 0,0.1 c 0,1.07 -0.98,2.01 -2.36,2.01 h -2.48 v -6.9 h 0.89 V 710 l -0.03,0.58 v 2.89 h 1.4 c 1.1,0 1.78,-0.6 1.78,-1.45 0,-0.79 -0.63,-1.44 -1.78,-1.44 h -1.4 l 0.03,-0.58 z"
         style="fill:#0000ff;stroke-width:0"
         inkscape:connector-curvature="0" /><path
         id="path14032"
         d="m 234.19,709.32 0,0.12 -0.01,0.12 -0.01,0.12 -0.02,0.12 -0.03,0.12 -0.03,0.11 -0.03,0.11 -0.04,0.11 -0.05,0.11 -0.04,0.1 -0.06,0.1 -0.06,0.1 -0.06,0.09 -0.06,0.09 -0.07,0.09 -0.07,0.08 -0.08,0.08 -0.08,0.08 -0.08,0.07 -0.09,0.07 -0.09,0.06 -0.09,0.06 -0.09,0.05 -0.1,0.05 -0.1,0.04 -0.1,0.04 -0.1,0.03 -0.11,0.02 -0.1,0.03 -0.11,0.01 -0.11,0.01 -0.11,0 -0.01,-0.6 c 0.7,0 1.42,-0.52 1.42,-1.7 0,-1.17 -0.68,-1.76 -1.42,-1.76 h 0 c -0.69,0 -1.4,0.56 -1.4,1.76 0,1.21 0.75,1.7 1.4,1.7 l 0.01,0.6 c -1.23,0 -2.19,-1.09 -2.19,-2.39 0,-1.32 1.01,-2.3 2.18,-2.3 1.2,0 2.19,1 2.19,2.3 z"
         style="fill:#0000ff;stroke-width:0"
         inkscape:connector-curvature="0" /><path
         id="path14034"
         d="m 237.92,711.4 -0.05,0.02 -0.05,0.02 -0.09,0.04 -0.09,0.03 -0.09,0.04 -0.09,0.02 -0.09,0.03 -0.09,0.02 -0.08,0.02 -0.09,0.02 -0.09,0.02 -0.08,0.01 -0.09,0.01 -0.09,0 -0.09,0.01 -0.09,0 -0.1,0 c -0.25,0 -1.65,0 -1.65,-1.3 0,-0.49 0.29,-0.81 0.54,-1 0.31,-0.21 0.53,-0.25 1.07,-0.36 0.36,-0.07 0.94,-0.19 0.94,-0.72 0,-0.69 -0.79,-0.69 -0.94,-0.69 -0.8,0 -1.36,0.37 -1.54,0.49 l -0.12,-0.68 c 0.32,-0.16 0.87,-0.43 1.67,-0.43 0.18,0 0.73,0 1.16,0.31 0.31,0.24 0.48,0.64 0.48,1.07 0,0.55 -0.37,0.88 -0.39,0.92 -0.39,0.34 -0.66,0.4 -1.16,0.49 -0.55,0.11 -1,0.21 -1,0.7 0,0.62 0.71,0.62 0.84,0.62 0.32,0 0.85,-0.04 1.42,-0.38 z"
         style="fill:#0000ff;stroke-width:0"
         inkscape:connector-curvature="0" /><polygon
         id="polygon14036"
         points="239.06,713.01 239.94,713.01 239.94,713.89 239.06,713.89 "
         style="fill:#0000ff;stroke-width:0" /><polygon
         id="polygon14038"
         points="239.13,707.13 239.87,707.13 239.87,711.54 239.13,711.54 "
         style="fill:#0000ff;stroke-width:0" /><path
         id="path14040"
         d="m 242.44,710.97 h 1.41 v 0.57 h -1.41 v 1.27 h -0.68 v -1.27 h -0.87 v -0.57 h 0.84 v -2.66 c 0,-0.6 0.13,-1.29 0.82,-1.29 0.7,0 1.21,0.24 1.46,0.37 l -0.16,0.59 c -0.26,-0.21 -0.58,-0.33 -0.9,-0.33 -0.37,0 -0.51,0.3 -0.51,0.83 z"
         style="fill:#0000ff;stroke-width:0"
         inkscape:connector-curvature="0" /><polygon
         id="polygon14042"
         points="245.03,713.01 245.92,713.01 245.92,713.89 245.03,713.89 "
         style="fill:#0000ff;stroke-width:0" /><polygon
         id="polygon14044"
         points="245.1,707.13 245.85,707.13 245.85,711.54 245.1,711.54 "
         style="fill:#0000ff;stroke-width:0" /><path
         id="path14046"
         d="m 251.12,711.54 h -0.75 l -0.78,-2.07 c -0.21,-0.54 -0.52,-1.35 -0.6,-1.82 h -0.01 c -0.06,0.36 -0.32,1.05 -0.42,1.32 l -0.97,2.57 h -0.77 l 1.71,-4.41 h 0.88 z"
         style="fill:#0000ff;stroke-width:0"
         inkscape:connector-curvature="0" /><path
         id="path14048"
         d="m 255.4,709.3 0,0.04 0,0.03 0,0.04 -0.01,0.04 0,0.04 0,0.04 0,0.05 0,0.05 0,0.04 -0.01,0.05 0,0.06 -0.01,0.05 0,0.05 -0.01,0.06 -0.01,0.05 -0.01,0.06 -0.01,0.06 -0.01,0.05 -0.01,0.06 -0.02,0.06 -0.01,0.06 -0.02,0.06 -0.02,0.06 -0.02,0.06 -0.02,0.06 -0.02,0.06 -0.03,0.06 -0.02,0.06 -0.03,0.06 -0.03,0.05 -0.04,0.06 -0.03,0.06 c -0.41,0.61 -1.02,0.72 -1.38,0.72 -1.11,0 -2,-1.05 -2,-2.34 0,-1.31 0.95,-2.35 2.15,-2.35 0.63,0 1.2,0.23 1.59,0.51 l -0.06,0.65 c -0.63,-0.52 -1.29,-0.56 -1.52,-0.56 -0.8,0 -1.43,0.71 -1.46,1.68 l 0.05,0.55 c 0.15,0.76 0.68,1.26 1.25,1.26 0.52,0 1.08,-0.34 1.21,-1.26 h -2.46 l -0.05,-0.55 z"
         style="fill:#0000ff;stroke-width:0"
         inkscape:connector-curvature="0" /><polygon
         id="polygon14050"
         points="256.63,707.13 257.52,707.13 257.52,714.03 256.63,714.03 "
         style="fill:#0000ff;stroke-width:0" /><path
         id="path14052"
         d="m 262.8,710.09 0,0.06 0,0.07 0,0.06 -0.01,0.07 0,0.06 -0.01,0.07 -0.01,0.07 -0.01,0.06 -0.01,0.07 -0.02,0.06 -0.02,0.07 -0.02,0.06 -0.02,0.07 -0.03,0.06 -0.03,0.06 -0.04,0.06 -0.03,0.06 -0.04,0.05 -0.05,0.05 -0.05,0.05 -0.05,0.05 -0.06,0.04 -0.06,0.04 -0.07,0.04 -0.03,0.02 -0.04,0.02 -0.04,0.01 -0.04,0.02 -0.04,0.01 -0.04,0.01 -0.04,0.01 -0.05,0.01 -0.04,0.01 -0.05,0.01 -0.05,0.01 -0.05,0 -0.05,0.01 -0.05,0 -0.06,0 -0.06,0 c -0.89,0 -1.38,-0.67 -1.44,-0.75 v 0.7 h -0.72 v -4.47 h 0.78 v 2.43 c 0,0.66 0.25,1.49 1.01,1.49 0.95,0 0.96,-0.71 0.96,-1.03 v -2.89 h 0.78 z"
         style="fill:#0000ff;stroke-width:0"
         inkscape:connector-curvature="0" /><path
         id="path14054"
         d="m 265.36,710.97 h 1.4 v 0.57 h -1.4 v 1.27 h -0.69 v -1.27 h -0.87 v -0.57 h 0.84 v -2.66 c 0,-0.6 0.14,-1.29 0.83,-1.29 0.69,0 1.2,0.24 1.45,0.37 l -0.16,0.59 c -0.26,-0.21 -0.58,-0.33 -0.9,-0.33 -0.36,0 -0.5,0.3 -0.5,0.83 z"
         style="fill:#0000ff;stroke-width:0"
         inkscape:connector-curvature="0" /><path
         id="path14056"
         d="m 271.34,709.3 0,0.04 0,0.03 0,0.04 -0.01,0.04 0,0.04 0,0.04 0,0.05 0,0.05 0,0.04 -0.01,0.05 0,0.06 -0.01,0.05 0,0.05 -0.01,0.06 -0.01,0.05 -0.01,0.06 -0.01,0.06 -0.01,0.05 -0.01,0.06 -0.02,0.06 -0.01,0.06 -0.02,0.06 -0.02,0.06 -0.02,0.06 -0.02,0.06 -0.02,0.06 -0.03,0.06 -0.02,0.06 -0.03,0.06 -0.03,0.05 -0.04,0.06 -0.03,0.06 c -0.41,0.61 -1.02,0.72 -1.38,0.72 -1.1,0 -2,-1.05 -2,-2.34 0,-1.31 0.96,-2.35 2.15,-2.35 0.63,0 1.2,0.23 1.59,0.51 l -0.06,0.65 c -0.63,-0.52 -1.29,-0.56 -1.52,-0.56 -0.8,0 -1.43,0.71 -1.46,1.68 l 0.05,0.55 c 0.16,0.76 0.68,1.26 1.25,1.26 0.52,0 1.08,-0.34 1.21,-1.26 h -2.46 l -0.05,-0.55 z"
         style="fill:#0000ff;stroke-width:0"
         inkscape:connector-curvature="0" /><path
         id="path14058"
         d="m 275.15,711.02 0.04,0 0.04,0 0.04,0 0.05,0 0.05,0.01 0.04,0 0.05,0 0.05,0.01 0.09,0 0.05,0.01 0.05,0 0.05,0 0.04,0 0.05,0.01 0.04,0 c 0.18,0 0.57,-0.03 0.59,-0.03 l -0.11,0.62 c -0.7,0 -1.27,-0.19 -1.57,-0.31 -0.21,0.16 -0.55,0.31 -0.95,0.31 v -0.56 c 0.43,0 0.9,-0.28 0.9,-1.06 0,-0.77 -0.47,-1.05 -0.9,-1.05 h 0 c -0.37,0 -0.89,0.23 -0.89,1.05 0,0.83 0.52,1.06 0.89,1.06 v 0.56 c -0.86,0 -1.58,-0.71 -1.58,-1.62 0,-0.37 0.13,-0.73 0.32,-0.98 -0.28,-0.41 -0.28,-0.8 -0.28,-0.85 0,-0.26 0.09,-0.55 0.25,-0.76 -0.51,-0.3 -0.63,-0.76 -0.63,-1.02 0,-0.75 0.98,-1.34 2.2,-1.34 l 0.01,0.56 c -0.81,0 -1.52,0.31 -1.52,0.78 0,0.03 0,0.67 0.78,0.67 h 0.9 c 0.22,0 1.34,0 1.34,-0.68 0,-0.44 -0.68,-0.77 -1.5,-0.77 l -0.01,-0.56 c 1.23,0 2.21,0.58 2.21,1.35 0,1.38 -1.66,1.38 -2.05,1.38 h -0.88 c -0.13,0 -0.58,0 -0.58,0.53 0,0.11 0.04,0.27 0.11,0.36 0.21,-0.15 0.54,-0.29 0.91,-0.29 0.9,0 1.59,0.74 1.59,1.62 0,0.48 -0.21,0.85 -0.32,1 z"
         style="fill:#0000ff;stroke-width:0"
         inkscape:connector-curvature="0" /><path
         id="path14060"
         d="m 280.74,709.3 0,0.04 0,0.03 0,0.04 0,0.04 0,0.04 0,0.04 0,0.05 0,0.05 -0.01,0.04 0,0.05 0,0.06 -0.01,0.05 0,0.05 -0.01,0.06 -0.01,0.05 -0.01,0.06 -0.01,0.06 -0.01,0.05 -0.01,0.06 -0.02,0.06 -0.01,0.06 -0.02,0.06 -0.02,0.06 -0.02,0.06 -0.02,0.06 -0.02,0.06 -0.03,0.06 -0.03,0.06 -0.02,0.06 -0.04,0.05 -0.03,0.06 -0.03,0.06 c -0.41,0.61 -1.02,0.72 -1.38,0.72 -1.11,0 -2,-1.05 -2,-2.34 0,-1.31 0.95,-2.35 2.15,-2.35 0.63,0 1.2,0.23 1.58,0.51 l -0.06,0.65 c -0.62,-0.52 -1.28,-0.56 -1.51,-0.56 -0.8,0 -1.43,0.71 -1.46,1.68 l 0.04,0.55 c 0.16,0.76 0.69,1.26 1.26,1.26 0.52,0 1.08,-0.34 1.21,-1.26 h -2.47 l -0.04,-0.55 z"
         style="fill:#0000ff;stroke-width:0"
         inkscape:connector-curvature="0" /><path
         id="path14062"
         d="m 282.61,709.26 0,0.09 0.01,0.09 0.01,0.09 0.01,0.08 0.02,0.09 0.02,0.08 0.03,0.08 0.03,0.08 0.03,0.08 0.04,0.07 0.04,0.08 0.04,0.06 0.05,0.07 0.04,0.07 0.06,0.06 0.05,0.06 0.06,0.05 0.06,0.06 0.06,0.05 0.07,0.04 0.07,0.05 0.07,0.04 0.07,0.03 0.08,0.04 0.08,0.03 0.08,0.02 0.08,0.03 0.08,0.02 0.09,0.01 0.08,0.02 0.09,0 0.09,0.01 v 0.66 c -0.88,-0.01 -1.43,-0.49 -1.74,-0.95 v 0.9 h -0.7 v -4.47 h 0.75 z"
         style="fill:#0000ff;stroke-width:0"
         inkscape:connector-curvature="0" /></g>    <path
       sodipodi:type="arc"
       style="fill:none;stroke:#0000ff;stroke-width:1.04773486;stroke-miterlimit:4;stroke-opacity:1;stroke-dasharray:none"
       id="path2816-0-8"
       sodipodi:cx="245.71428"
       sodipodi:cy="450.93362"
       sodipodi:rx="65.714287"
       sodipodi:ry="58.57143"
       d="m 311.42857,450.93362 c 0,32.34811 -29.42129,58.57143 -65.71429,58.57143 -36.293,0 -65.71429,-26.22332 -65.71429,-58.57143 0,-32.3481 29.42129,-58.57143 65.71429,-58.57143 36.293,0 65.71429,26.22333 65.71429,58.57143 z"
       transform="matrix(2.5108695,0,0,1.4512196,-341.95649,-187.04154)" />
    <path
       sodipodi:type="arc"
       style="fill:none;stroke:#0000ff;stroke-width:2.43341494;stroke-miterlimit:4;stroke-opacity:1;stroke-dasharray:none"
       id="path2816-0-1-2"
       sodipodi:cx="245.71428"
       sodipodi:cy="450.93362"
       sodipodi:rx="65.714287"
       sodipodi:ry="58.57143"
       d="m 311.42857,450.93362 c 0,32.34811 -29.42129,58.57143 -65.71429,58.57143 -36.293,0 -65.71429,-26.22332 -65.71429,-58.57143 0,-32.3481 29.42129,-58.57143 65.71429,-58.57143 36.293,0 65.71429,26.22333 65.71429,58.57143 z"
       transform="matrix(0.98913041,0,0,0.68292686,73.956542,174.40751)" />
    <rect
       y="368.36218"
       x="232.00002"
       height="29.999992"
       width="80"
       id="rect5461-6"
       style="opacity:0.7;fill:#ffffff;fill-opacity:1;stroke:none" />
    <rect
       y="422.36218"
       x="286"
       height="29.999992"
       width="80"
       id="rect5461-8-6"
       style="opacity:0.7;fill:#ffffff;fill-opacity:1;stroke:none" />
    <g
       id="content-0"
       transform="matrix(3,0,0,-3,-437.32,2502.7522)"
       xml:space="preserve"
       stroke-miterlimit="10.433"
       font-style="normal"
       font-variant="normal"
       font-weight="normal"
       font-stretch="normal"
       font-size-adjust="none"
       letter-spacing="normal"
       word-spacing="normal"
       ns0:text="$\\mathsf{Person}$"
       ns0:preamble=""
       style="font-style:normal;font-variant:normal;font-weight:normal;font-stretch:normal;letter-spacing:normal;word-spacing:normal;text-anchor:start;fill:#0000ff;fill-opacity:1;fill-rule:evenodd;stroke:#000000;stroke-linecap:butt;stroke-linejoin:miter;stroke-miterlimit:10.43299961;stroke-opacity:1;stroke-dasharray:none;stroke-dashoffset:0"><path
         d="m 226.94,710 0.12,0 0.11,0.01 0.11,0.01 0.11,0.02 0.11,0.02 0.11,0.03 0.11,0.03 0.1,0.04 0.1,0.04 0.1,0.05 0.1,0.04 0.09,0.06 0.09,0.05 0.09,0.06 0.08,0.07 0.08,0.06 0.08,0.07 0.07,0.08 0.07,0.07 0.06,0.08 0.06,0.08 0.06,0.09 0.05,0.09 0.05,0.09 0.04,0.09 0.04,0.09 0.03,0.1 0.03,0.1 0.02,0.09 0.01,0.11 0.01,0.1 0,0.1 c 0,1.07 -0.98,2.01 -2.36,2.01 h -2.48 v -6.9 h 0.89 V 710 l -0.03,0.58 v 2.89 h 1.4 c 1.1,0 1.78,-0.6 1.78,-1.45 0,-0.79 -0.63,-1.44 -1.78,-1.44 h -1.4 l 0.03,-0.58 z"
         id="path14287"
         style="fill:#0000ff;stroke-width:0"
         inkscape:connector-curvature="0" /><path
         d="m 233.65,709.3 -0.01,0.04 0,0.03 0,0.04 0,0.04 0,0.04 0,0.04 0,0.05 0,0.05 -0.01,0.04 0,0.05 0,0.06 -0.01,0.05 0,0.05 -0.01,0.06 -0.01,0.05 -0.01,0.06 -0.01,0.06 -0.01,0.05 -0.01,0.06 -0.02,0.06 -0.01,0.06 -0.02,0.06 -0.02,0.06 -0.02,0.06 -0.02,0.06 -0.02,0.06 -0.03,0.06 -0.03,0.06 -0.02,0.06 -0.04,0.05 -0.03,0.06 -0.03,0.06 c -0.41,0.61 -1.02,0.72 -1.38,0.72 -1.11,0 -2,-1.05 -2,-2.34 0,-1.31 0.95,-2.35 2.15,-2.35 0.63,0 1.2,0.23 1.58,0.51 l -0.06,0.65 c -0.62,-0.52 -1.28,-0.56 -1.51,-0.56 -0.8,0 -1.43,0.71 -1.46,1.68 l 0.05,0.55 c 0.15,0.76 0.68,1.26 1.25,1.26 0.52,0 1.08,-0.34 1.21,-1.26 h -2.46 l -0.05,-0.55 z"
         id="path14289"
         style="fill:#0000ff;stroke-width:0"
         inkscape:connector-curvature="0" /><path
         d="m 235.51,709.26 0,0.09 0.01,0.09 0.01,0.09 0.01,0.08 0.02,0.09 0.02,0.08 0.03,0.08 0.03,0.08 0.03,0.08 0.04,0.07 0.04,0.08 0.04,0.06 0.05,0.07 0.04,0.07 0.06,0.06 0.05,0.06 0.06,0.05 0.06,0.06 0.06,0.05 0.07,0.04 0.07,0.05 0.07,0.04 0.07,0.03 0.08,0.04 0.08,0.03 0.08,0.02 0.08,0.03 0.08,0.02 0.09,0.01 0.08,0.02 0.09,0 0.1,0.01 v 0.66 c -0.89,-0.01 -1.44,-0.49 -1.75,-0.95 v 0.9 h -0.7 v -4.47 h 0.75 z"
         id="path14291"
         style="fill:#0000ff;stroke-width:0"
         inkscape:connector-curvature="0" /><path
         d="m 240.77,711.4 -0.05,0.02 -0.05,0.02 -0.09,0.04 -0.09,0.03 -0.09,0.04 -0.09,0.02 -0.09,0.03 -0.09,0.02 -0.08,0.02 -0.09,0.02 -0.09,0.02 -0.08,0.01 -0.09,0.01 -0.09,0 -0.09,0.01 -0.09,0 -0.1,0 c -0.25,0 -1.65,0 -1.65,-1.3 0,-0.49 0.29,-0.81 0.54,-1 0.31,-0.21 0.52,-0.25 1.07,-0.36 0.36,-0.07 0.94,-0.19 0.94,-0.72 0,-0.69 -0.79,-0.69 -0.94,-0.69 -0.8,0 -1.36,0.37 -1.54,0.49 l -0.12,-0.68 c 0.32,-0.16 0.87,-0.43 1.67,-0.43 0.18,0 0.73,0 1.16,0.31 0.31,0.24 0.48,0.64 0.48,1.07 0,0.55 -0.37,0.88 -0.39,0.92 -0.39,0.34 -0.66,0.4 -1.16,0.49 -0.54,0.11 -1,0.21 -1,0.7 0,0.62 0.71,0.62 0.84,0.62 0.32,0 0.85,-0.04 1.42,-0.38 z"
         id="path14293"
         style="fill:#0000ff;stroke-width:0"
         inkscape:connector-curvature="0" /><path
         d="m 245.84,709.32 0,0.12 -0.01,0.12 -0.01,0.12 -0.02,0.12 -0.03,0.12 -0.03,0.11 -0.03,0.11 -0.04,0.11 -0.04,0.11 -0.05,0.1 -0.06,0.1 -0.05,0.1 -0.07,0.09 -0.06,0.09 -0.07,0.09 -0.07,0.08 -0.08,0.08 -0.08,0.08 -0.08,0.07 -0.09,0.07 -0.09,0.06 -0.09,0.06 -0.09,0.05 -0.1,0.05 -0.1,0.04 -0.1,0.04 -0.1,0.03 -0.1,0.02 -0.11,0.03 -0.11,0.01 -0.11,0.01 -0.11,0 -0.01,-0.6 c 0.7,0 1.42,-0.52 1.42,-1.7 0,-1.17 -0.68,-1.76 -1.42,-1.76 h 0 c -0.69,0 -1.41,0.56 -1.41,1.76 0,1.21 0.76,1.7 1.41,1.7 l 0.01,0.6 c -1.23,0 -2.19,-1.09 -2.19,-2.39 0,-1.32 1.01,-2.3 2.18,-2.3 1.2,0 2.19,1 2.19,2.3 z"
         id="path14295"
         style="fill:#0000ff;stroke-width:0"
         inkscape:connector-curvature="0" /><path
         d="m 250.49,710.09 0,0.06 -0.01,0.07 0,0.06 0,0.07 -0.01,0.06 -0.01,0.07 -0.01,0.07 -0.01,0.06 -0.01,0.07 -0.02,0.06 -0.01,0.07 -0.03,0.06 -0.02,0.07 -0.03,0.06 -0.03,0.06 -0.03,0.06 -0.04,0.06 -0.04,0.05 -0.04,0.05 -0.05,0.05 -0.06,0.05 -0.05,0.04 -0.07,0.04 -0.06,0.04 -0.04,0.02 -0.04,0.02 -0.03,0.01 -0.04,0.02 -0.04,0.01 -0.04,0.01 -0.05,0.01 -0.04,0.01 -0.05,0.01 -0.05,0.01 -0.04,0.01 -0.05,0 -0.06,0.01 -0.05,0 -0.05,0 -0.06,0 c -0.9,0 -1.38,-0.67 -1.44,-0.75 v 0.7 h -0.72 v -4.47 h 0.78 v 2.43 c 0,0.66 0.24,1.49 1,1.49 0.96,0 0.97,-0.71 0.97,-1.03 v -2.89 h 0.78 z"
         id="path14297"
         style="fill:#0000ff;stroke-width:0"
         inkscape:connector-curvature="0" /></g>    <g
       id="g14560"
       transform="matrix(3,0,0,-3,-384.835,2562.0822)"
       xml:space="preserve"
       stroke-miterlimit="10.433"
       font-style="normal"
       font-variant="normal"
       font-weight="normal"
       font-stretch="normal"
       font-size-adjust="none"
       letter-spacing="normal"
       word-spacing="normal"
       ns0:text="$\\mathsf{Lecturer}$"
       ns0:preamble=""
       style="font-style:normal;font-variant:normal;font-weight:normal;font-stretch:normal;letter-spacing:normal;word-spacing:normal;text-anchor:start;fill:#0000ff;fill-opacity:1;fill-rule:evenodd;stroke:#000000;stroke-linecap:butt;stroke-linejoin:miter;stroke-miterlimit:10.43299961;stroke-opacity:1;stroke-dasharray:none;stroke-dashoffset:0"><path
         style="fill:#0000ff;stroke-width:0"
         d="m 225.26,714.03 h -0.89 v -6.9 h 4.04 v 0.65 c -0.89,-0.01 -1.78,-0.02 -2.67,-0.02 h -0.48 z"
         id="path14562"
         inkscape:connector-curvature="0" /><path
         style="fill:#0000ff;stroke-width:0"
         d="m 232.96,709.3 0,0.04 0,0.03 0,0.04 -0.01,0.04 0,0.04 0,0.04 0,0.05 0,0.05 0,0.04 -0.01,0.05 0,0.06 -0.01,0.05 0,0.05 -0.01,0.06 -0.01,0.05 -0.01,0.06 -0.01,0.06 -0.01,0.05 -0.01,0.06 -0.02,0.06 -0.01,0.06 -0.02,0.06 -0.02,0.06 -0.02,0.06 -0.02,0.06 -0.02,0.06 -0.03,0.06 -0.02,0.06 -0.03,0.06 -0.03,0.05 -0.04,0.06 -0.03,0.06 c -0.41,0.61 -1.02,0.72 -1.38,0.72 -1.11,0 -2,-1.05 -2,-2.34 0,-1.31 0.95,-2.35 2.15,-2.35 0.63,0 1.2,0.23 1.59,0.51 l -0.06,0.65 c -0.63,-0.52 -1.29,-0.56 -1.52,-0.56 -0.8,0 -1.44,0.71 -1.46,1.68 l 0.05,0.55 c 0.16,0.76 0.68,1.26 1.25,1.26 0.52,0 1.08,-0.34 1.21,-1.26 h -2.46 l -0.05,-0.55 z"
         id="path14564"
         inkscape:connector-curvature="0" /><path
         style="fill:#0000ff;stroke-width:0"
         d="m 237.34,711.28 -0.05,0.04 -0.05,0.03 -0.06,0.02 -0.05,0.03 -0.05,0.03 -0.04,0.02 -0.05,0.02 -0.05,0.02 -0.05,0.02 -0.04,0.02 -0.05,0.02 -0.04,0.02 -0.09,0.03 -0.09,0.03 -0.09,0.02 -0.08,0.02 -0.09,0.01 -0.1,0.01 -0.05,0.01 -0.04,0 -0.05,0.01 -0.06,0 -0.05,0 -0.05,0 -0.06,0 -0.05,0 c -1.39,0 -2.19,-1.2 -2.19,-2.38 0,-1.23 0.9,-2.31 2.15,-2.31 0.54,0 1.08,0.14 1.62,0.5 l -0.06,0.67 c -0.51,-0.4 -1.04,-0.54 -1.55,-0.54 -0.83,0 -1.39,0.72 -1.39,1.69 0,0.78 0.37,1.74 1.43,1.74 0.52,0 0.86,-0.08 1.4,-0.44 z"
         id="path14566"
         inkscape:connector-curvature="0" /><path
         style="fill:#0000ff;stroke-width:0"
         d="m 239.43,710.97 h 1.4 v 0.57 h -1.4 v 1.27 h -0.69 v -1.27 h -0.87 v -0.57 h 0.84 v -2.66 c 0,-0.6 0.14,-1.29 0.83,-1.29 0.7,0 1.2,0.24 1.45,0.37 l -0.16,0.59 c -0.26,-0.21 -0.57,-0.33 -0.89,-0.33 -0.37,0 -0.51,0.3 -0.51,0.83 z"
         id="path14568"
         inkscape:connector-curvature="0" /><path
         style="fill:#0000ff;stroke-width:0"
         d="m 245.62,711.54 h -0.78 v -2.88 c 0,-0.75 -0.56,-1.1 -1.2,-1.1 -0.7,0 -0.77,0.26 -0.77,0.69 v 3.29 h -0.78 v -3.33 c 0,-0.72 0.23,-1.19 1.06,-1.19 0.52,0 1.23,0.15 1.72,0.58 v -0.47 h 0.75 z"
         id="path14570"
         inkscape:connector-curvature="0" /><path
         style="fill:#0000ff;stroke-width:0"
         d="m 247.99,709.26 0.01,0.09 0,0.09 0.01,0.09 0.02,0.08 0.01,0.09 0.03,0.08 0.02,0.08 0.03,0.08 0.03,0.08 0.04,0.07 0.04,0.08 0.04,0.06 0.05,0.07 0.05,0.07 0.05,0.06 0.05,0.06 0.06,0.05 0.06,0.06 0.07,0.05 0.06,0.04 0.07,0.05 0.07,0.04 0.08,0.03 0.07,0.04 0.08,0.03 0.08,0.02 0.08,0.03 0.08,0.02 0.09,0.01 0.09,0.02 0.09,0 0.09,0.01 v 0.66 c -0.89,-0.01 -1.44,-0.49 -1.75,-0.95 v 0.9 h -0.69 v -4.47 h 0.74 z"
         id="path14572"
         inkscape:connector-curvature="0" /><path
         style="fill:#0000ff;stroke-width:0"
         d="m 253.96,709.3 0,0.04 0,0.03 0,0.04 0,0.04 0,0.04 0,0.04 -0.01,0.05 0,0.05 0,0.04 0,0.05 -0.01,0.06 0,0.05 -0.01,0.05 -0.01,0.06 0,0.05 -0.01,0.06 -0.01,0.06 -0.02,0.05 -0.01,0.06 -0.01,0.06 -0.02,0.06 -0.01,0.06 -0.02,0.06 -0.02,0.06 -0.02,0.06 -0.03,0.06 -0.02,0.06 -0.03,0.06 -0.03,0.06 -0.03,0.05 -0.03,0.06 -0.04,0.06 c -0.41,0.61 -1.02,0.72 -1.38,0.72 -1.1,0 -2,-1.05 -2,-2.34 0,-1.31 0.96,-2.35 2.16,-2.35 0.62,0 1.19,0.23 1.58,0.51 l -0.06,0.65 c -0.63,-0.52 -1.29,-0.56 -1.51,-0.56 -0.8,0 -1.44,0.71 -1.47,1.68 l 0.05,0.55 c 0.16,0.76 0.69,1.26 1.25,1.26 0.52,0 1.08,-0.34 1.21,-1.26 h -2.46 l -0.05,-0.55 z"
         id="path14574"
         inkscape:connector-curvature="0" /><path
         style="fill:#0000ff;stroke-width:0"
         d="m 255.82,709.26 0.01,0.09 0,0.09 0.01,0.09 0.02,0.08 0.02,0.09 0.02,0.08 0.02,0.08 0.03,0.08 0.04,0.08 0.03,0.07 0.04,0.08 0.04,0.06 0.05,0.07 0.05,0.07 0.05,0.06 0.06,0.06 0.05,0.05 0.06,0.06 0.07,0.05 0.06,0.04 0.07,0.05 0.07,0.04 0.08,0.03 0.07,0.04 0.08,0.03 0.08,0.02 0.08,0.03 0.09,0.02 0.08,0.01 0.09,0.02 0.09,0 0.09,0.01 v 0.66 c -0.89,-0.01 -1.44,-0.49 -1.75,-0.95 v 0.9 h -0.69 v -4.47 h 0.74 z"
         id="path14576"
         inkscape:connector-curvature="0" /></g>    <rect
       y="412.36218"
       x="166.00002"
       height="29.999992"
       width="80"
       id="rect5461-8-1"
       style="opacity:0.7;fill:#ffffff;fill-opacity:1;stroke:none" />
    <path
       sodipodi:type="arc"
       style="fill:none;stroke:#0000ff;stroke-width:2.43341494;stroke-miterlimit:4;stroke-opacity:1;stroke-dasharray:none"
       id="path2816-0-1-7"
       sodipodi:cx="245.71428"
       sodipodi:cy="450.93362"
       sodipodi:rx="65.714287"
       sodipodi:ry="58.57143"
       d="m 311.42857,450.93362 c 0,32.34811 -29.42129,58.57143 -65.71429,58.57143 -36.293,0 -65.71429,-26.22332 -65.71429,-58.57143 0,-32.3481 29.42129,-58.57143 65.71429,-58.57143 36.293,0 65.71429,26.22333 65.71429,58.57143 z"
       transform="matrix(0.98913041,0,0,0.68292686,-8.0434577,174.40751)" />
    <rect
       y="422.36218"
       x="176.00002"
       height="29.999992"
       width="80"
       id="rect5461-8-7"
       style="opacity:0.7;fill:#ffffff;fill-opacity:1;stroke:none" />
    <g
       style="font-style:normal;font-variant:normal;font-weight:normal;font-stretch:normal;letter-spacing:normal;word-spacing:normal;text-anchor:start;fill:#0000ff;fill-opacity:1;fill-rule:evenodd;stroke:#000000;stroke-linecap:butt;stroke-linejoin:miter;stroke-miterlimit:10.43299961;stroke-opacity:1;stroke-dasharray:none;stroke-dashoffset:0"
       ns0:preamble=""
       ns0:text="$\\mathsf{Student}$"
       word-spacing="normal"
       letter-spacing="normal"
       font-size-adjust="none"
       font-stretch="normal"
       font-weight="normal"
       font-variant="normal"
       font-style="normal"
       stroke-miterlimit="10.433"
       xml:space="preserve"
       transform="matrix(3,0,0,-3,-514.83499,2561.7522)"
       id="g14817"><path
         id="path14819"
         d="m 228.07,713.75 -0.11,0.06 -0.1,0.06 -0.1,0.05 -0.11,0.05 -0.1,0.04 -0.11,0.05 -0.11,0.03 -0.11,0.04 -0.11,0.02 -0.11,0.03 -0.12,0.02 -0.12,0.02 -0.13,0.01 -0.12,0.01 -0.13,0.01 -0.07,0 -0.07,0 c -1.38,0 -2.25,-0.97 -2.25,-1.96 0,-0.43 0.14,-0.85 0.54,-1.26 0.42,-0.45 0.86,-0.57 1.44,-0.71 0.85,-0.21 0.95,-0.24 1.23,-0.49 0.2,-0.17 0.42,-0.5 0.42,-0.92 0,-0.66 -0.55,-1.32 -1.46,-1.32 -0.4,0 -1.3,0.1 -2.14,0.81 l -0.15,-0.81 c 0.88,-0.55 1.67,-0.68 2.3,-0.68 1.32,0 2.24,1 2.24,2.1 0,0.64 -0.31,1.12 -0.53,1.36 -0.47,0.5 -0.8,0.59 -1.72,0.82 -0.57,0.14 -0.73,0.17 -1.03,0.43 -0.07,0.06 -0.35,0.35 -0.35,0.79 0,0.59 0.54,1.18 1.45,1.18 0.84,0 1.32,-0.32 1.69,-0.63 z"
         style="fill:#0000ff;stroke-width:0"
         inkscape:connector-curvature="0" /><path
         id="path14821"
         d="m 230.71,710.97 h 1.41 v 0.57 h -1.41 v 1.27 h -0.69 v -1.27 h -0.86 v -0.57 h 0.83 v -2.66 c 0,-0.6 0.14,-1.29 0.83,-1.29 0.7,0 1.21,0.24 1.46,0.37 l -0.16,0.59 c -0.26,-0.21 -0.58,-0.33 -0.9,-0.33 -0.37,0 -0.51,0.3 -0.51,0.83 z"
         style="fill:#0000ff;stroke-width:0"
         inkscape:connector-curvature="0" /><path
         id="path14823"
         d="m 236.9,711.54 h -0.78 v -2.88 c 0,-0.75 -0.55,-1.1 -1.19,-1.1 -0.71,0 -0.78,0.26 -0.78,0.69 v 3.29 h -0.78 v -3.33 c 0,-0.72 0.23,-1.19 1.06,-1.19 0.53,0 1.23,0.15 1.72,0.58 v -0.47 h 0.75 z"
         style="fill:#0000ff;stroke-width:0"
         inkscape:connector-curvature="0" /><path
         id="path14825"
         d="m 242.04,714.03 h -0.75 v -2.92 c -0.53,0.43 -1.09,0.54 -1.45,0.54 -0.99,0 -1.77,-1.03 -1.77,-2.32 0,-1.3 0.77,-2.31 1.72,-2.31 0.33,0 0.91,0.08 1.47,0.62 l -0.33,0.26 c -0.23,-0.2 -0.48,-0.28 -0.73,-0.28 -0.62,0 -1.35,0.47 -1.35,1.7 0,1.32 0.86,1.73 1.44,1.73 0.45,0 0.75,-0.23 0.97,-0.55 v -1.99 c 0,-0.14 -0.01,-0.32 -0.33,-0.61 l 0.33,-0.26 v -0.51 h 0.78 z"
         style="fill:#0000ff;stroke-width:0"
         inkscape:connector-curvature="0" /><path
         id="path14827"
         d="m 246.99,709.3 0,0.04 0,0.03 0,0.04 0,0.04 -0.01,0.04 0,0.04 0,0.05 0,0.05 0,0.04 -0.01,0.05 0,0.06 -0.01,0.05 0,0.05 -0.01,0.06 -0.01,0.05 -0.01,0.06 -0.01,0.06 -0.01,0.05 -0.01,0.06 -0.01,0.06 -0.02,0.06 -0.02,0.06 -0.02,0.06 -0.02,0.06 -0.02,0.06 -0.02,0.06 -0.03,0.06 -0.02,0.06 -0.03,0.06 -0.03,0.05 -0.04,0.06 -0.03,0.06 c -0.41,0.61 -1.02,0.72 -1.38,0.72 -1.1,0 -2,-1.05 -2,-2.34 0,-1.31 0.96,-2.35 2.15,-2.35 0.63,0 1.2,0.23 1.59,0.51 l -0.06,0.65 c -0.63,-0.52 -1.29,-0.56 -1.52,-0.56 -0.8,0 -1.43,0.71 -1.46,1.68 l 0.05,0.55 c 0.16,0.76 0.68,1.26 1.25,1.26 0.52,0 1.08,-0.34 1.21,-1.26 h -2.46 l -0.05,-0.55 z"
         style="fill:#0000ff;stroke-width:0"
         inkscape:connector-curvature="0" /><path
         id="path14829"
         d="m 251.62,710.09 0,0.06 0,0.07 0,0.06 0,0.07 -0.01,0.06 -0.01,0.07 -0.01,0.07 -0.01,0.06 -0.01,0.07 -0.02,0.06 -0.02,0.07 -0.02,0.06 -0.02,0.07 -0.03,0.06 -0.03,0.06 -0.03,0.06 -0.04,0.06 -0.04,0.05 -0.05,0.05 -0.05,0.05 -0.05,0.05 -0.06,0.04 -0.06,0.04 -0.07,0.04 -0.03,0.02 -0.04,0.02 -0.04,0.01 -0.03,0.02 -0.04,0.01 -0.05,0.01 -0.04,0.01 -0.04,0.01 -0.05,0.01 -0.05,0.01 -0.05,0.01 -0.05,0 -0.05,0.01 -0.05,0 -0.06,0 -0.05,0 c -0.9,0 -1.39,-0.67 -1.45,-0.75 v 0.7 h -0.71 v -4.47 h 0.77 v 2.43 c 0,0.66 0.25,1.49 1.01,1.49 0.96,0 0.97,-0.71 0.97,-1.03 v -2.89 h 0.77 z"
         style="fill:#0000ff;stroke-width:0"
         inkscape:connector-curvature="0" /><path
         id="path14831"
         d="m 254.18,710.97 h 1.41 v 0.57 h -1.41 v 1.27 h -0.69 v -1.27 h -0.87 v -0.57 h 0.84 v -2.66 c 0,-0.6 0.14,-1.29 0.83,-1.29 0.7,0 1.2,0.24 1.45,0.37 l -0.15,0.59 c -0.26,-0.21 -0.58,-0.33 -0.9,-0.33 -0.37,0 -0.51,0.3 -0.51,0.83 z"
         style="fill:#0000ff;stroke-width:0"
         inkscape:connector-curvature="0" /></g>    <path
       transform="matrix(1.8124999,0,0,1.8124999,-223.43747,-864.73171)"
       d="m 280,627.36218 c 0,2.76143 -2.23858,5 -5,5 -2.76142,0 -5,-2.23857 -5,-5 0,-2.76142 2.23858,-5 5,-5 2.76142,0 5,2.23858 5,5 z"
       sodipodi:ry="5"
       sodipodi:rx="5"
       sodipodi:cy="627.36218"
       sodipodi:cx="275"
       id="path2902-5"
       style="opacity:0.98000004;fill:#ff0000;fill-opacity:1;stroke:#ff0000;stroke-width:1.03448319;stroke-miterlimit:4;stroke-opacity:1;stroke-dasharray:none"
       sodipodi:type="arc" />
    <g
       style="font-style:normal;font-variant:normal;font-weight:normal;font-stretch:normal;letter-spacing:normal;word-spacing:normal;text-anchor:start;fill:#ff0000;fill-opacity:1;fill-rule:evenodd;stroke:#000000;stroke-linecap:butt;stroke-linejoin:miter;stroke-miterlimit:10.43299961;stroke-opacity:1;stroke-dasharray:none;stroke-dashoffset:0"
       ns0:preamble=""
       ns0:text="\\textsf{logic}"
       word-spacing="normal"
       letter-spacing="normal"
       font-size-adjust="none"
       font-stretch="normal"
       font-weight="normal"
       font-variant="normal"
       font-style="normal"
       stroke-miterlimit="10.433"
       xml:space="preserve"
       transform="matrix(3,0,0,-3,-424.795,2427.2722)"
       id="g6052"><polygon
         id="polygon6054"
         points="224.99,707.13 224.99,714.03 224.24,714.03 224.24,707.13 "
         style="fill:#ff0000;stroke-width:0" /><path
         id="path6056"
         d="m 230.49,709.32 -0.01,0.12 0,0.12 -0.02,0.12 -0.02,0.12 -0.02,0.12 -0.03,0.11 -0.04,0.11 -0.04,0.11 -0.04,0.11 -0.05,0.1 -0.05,0.1 -0.06,0.1 -0.06,0.09 -0.07,0.09 -0.07,0.09 -0.07,0.08 -0.08,0.08 -0.08,0.08 -0.08,0.07 -0.08,0.07 -0.09,0.06 -0.09,0.06 -0.1,0.05 -0.09,0.05 -0.1,0.04 -0.1,0.04 -0.11,0.03 -0.1,0.02 -0.11,0.03 -0.11,0.01 -0.11,0.01 -0.11,0 -0.01,-0.6 c 0.7,0 1.42,-0.52 1.42,-1.7 0,-1.17 -0.68,-1.76 -1.42,-1.76 h 0 c -0.68,0 -1.4,0.56 -1.4,1.76 0,1.21 0.76,1.7 1.4,1.7 l 0.01,0.6 c -1.22,0 -2.19,-1.09 -2.19,-2.39 0,-1.32 1.02,-2.3 2.18,-2.3 1.2,0 2.2,1 2.2,2.3 z"
         style="fill:#ff0000;stroke-width:0"
         inkscape:connector-curvature="0" /><path
         id="path6058"
         d="m 234.3,711.02 0.04,0 0.05,0 0.04,0 0.05,0 0.04,0.01 0.05,0 0.05,0 0.04,0.01 0.1,0 0.05,0.01 0.04,0 0.05,0 0.05,0 0.04,0.01 0.05,0 c 0.18,0 0.57,-0.03 0.59,-0.03 l -0.11,0.62 c -0.7,0 -1.28,-0.19 -1.58,-0.31 -0.21,0.16 -0.54,0.31 -0.94,0.31 v -0.56 c 0.43,0 0.89,-0.28 0.89,-1.06 0,-0.77 -0.46,-1.05 -0.89,-1.05 h 0 c -0.37,0 -0.89,0.23 -0.89,1.05 0,0.83 0.52,1.06 0.89,1.06 v 0.56 c -0.86,0 -1.59,-0.71 -1.59,-1.62 0,-0.37 0.13,-0.73 0.33,-0.98 -0.29,-0.41 -0.29,-0.8 -0.29,-0.85 0,-0.26 0.09,-0.55 0.26,-0.76 -0.52,-0.3 -0.64,-0.76 -0.64,-1.02 0,-0.75 0.99,-1.34 2.2,-1.34 l 0.02,0.56 c -0.81,0 -1.52,0.31 -1.52,0.78 0,0.03 0,0.67 0.78,0.67 h 0.9 c 0.21,0 1.34,0 1.34,-0.68 0,-0.44 -0.69,-0.77 -1.5,-0.77 l -0.02,-0.56 c 1.23,0 2.22,0.58 2.22,1.35 0,1.38 -1.67,1.38 -2.06,1.38 h -0.87 c -0.13,0 -0.58,0 -0.58,0.53 0,0.11 0.04,0.27 0.11,0.36 0.21,-0.15 0.54,-0.29 0.91,-0.29 0.89,0 1.59,0.74 1.59,1.62 0,0.48 -0.22,0.85 -0.33,1 z"
         style="fill:#ff0000;stroke-width:0"
         inkscape:connector-curvature="0" /><polygon
         id="polygon6060"
         points="237.4,713.01 237.4,713.89 236.51,713.89 236.51,713.01 "
         style="fill:#ff0000;stroke-width:0" /><polygon
         id="polygon6062"
         points="237.33,707.13 237.33,711.54 236.58,711.54 236.58,707.13 "
         style="fill:#ff0000;stroke-width:0" /><path
         id="path6064"
         d="m 242.24,711.28 -0.05,0.04 -0.06,0.03 -0.05,0.02 -0.05,0.03 -0.05,0.03 -0.05,0.02 -0.04,0.02 -0.05,0.02 -0.05,0.02 -0.04,0.02 -0.05,0.02 -0.04,0.02 -0.09,0.03 -0.09,0.03 -0.09,0.02 -0.09,0.02 -0.09,0.01 -0.09,0.01 -0.05,0.01 -0.05,0 -0.05,0.01 -0.05,0 -0.05,0 -0.05,0 -0.06,0 -0.05,0 c -1.39,0 -2.2,-1.2 -2.2,-2.38 0,-1.23 0.91,-2.31 2.16,-2.31 0.54,0 1.08,0.14 1.62,0.5 l -0.06,0.67 c -0.51,-0.4 -1.05,-0.54 -1.55,-0.54 -0.83,0 -1.39,0.72 -1.39,1.69 0,0.78 0.37,1.74 1.43,1.74 0.52,0 0.85,-0.08 1.4,-0.44 z"
         style="fill:#ff0000;stroke-width:0"
         inkscape:connector-curvature="0" /></g>    <path
       transform="matrix(1.8124999,0,0,1.8124999,-224.43747,-665.79421)"
       d="m 280,627.36218 c 0,2.76143 -2.23858,5 -5,5 -2.76142,0 -5,-2.23857 -5,-5 0,-2.76142 2.23858,-5 5,-5 2.76142,0 5,2.23858 5,5 z"
       sodipodi:ry="5"
       sodipodi:rx="5"
       sodipodi:cy="627.36218"
       sodipodi:cx="275"
       id="path2902"
       style="opacity:0.98000004;fill:#ff0000;fill-opacity:1;stroke:#ff0000;stroke-width:1.03448319;stroke-miterlimit:4;stroke-opacity:1;stroke-dasharray:none"
       sodipodi:type="arc" />
    <g
       id="g8315"
       transform="matrix(3,0,0,-3,-367.07,2624.9822)"
       xml:space="preserve"
       stroke-miterlimit="10.433"
       font-style="normal"
       font-variant="normal"
       font-weight="normal"
       font-stretch="normal"
       font-size-adjust="none"
       letter-spacing="normal"
       word-spacing="normal"
       ns0:text="\\textsf{Peter}"
       ns0:preamble=""
       style="font-style:normal;font-variant:normal;font-weight:normal;font-stretch:normal;letter-spacing:normal;word-spacing:normal;text-anchor:start;fill:#ff0000;fill-opacity:1;fill-rule:evenodd;stroke:#000000;stroke-linecap:butt;stroke-linejoin:miter;stroke-miterlimit:10.43299961;stroke-opacity:1;stroke-dasharray:none;stroke-dashoffset:0"><path
         style="fill:#ff0000;stroke-width:0"
         d="m 226.94,710 0.12,0 0.11,0.01 0.11,0.01 0.11,0.02 0.11,0.02 0.11,0.03 0.11,0.03 0.1,0.04 0.1,0.04 0.1,0.05 0.1,0.04 0.09,0.06 0.09,0.05 0.09,0.06 0.08,0.07 0.08,0.06 0.08,0.07 0.07,0.08 0.07,0.07 0.06,0.08 0.06,0.08 0.06,0.09 0.05,0.09 0.05,0.09 0.04,0.09 0.04,0.09 0.03,0.1 0.03,0.1 0.02,0.09 0.01,0.11 0.01,0.1 0,0.1 c 0,1.07 -0.98,2.01 -2.36,2.01 h -2.48 v -6.9 h 0.89 V 710 l -0.03,0.58 v 2.89 h 1.4 c 1.1,0 1.78,-0.6 1.78,-1.45 0,-0.79 -0.63,-1.44 -1.78,-1.44 h -1.4 l 0.03,-0.58 z"
         id="path8317"
         inkscape:connector-curvature="0" /><path
         style="fill:#ff0000;stroke-width:0"
         d="m 233.65,709.3 -0.01,0.04 0,0.03 0,0.04 0,0.04 0,0.04 0,0.04 0,0.05 0,0.05 -0.01,0.04 0,0.05 0,0.06 -0.01,0.05 0,0.05 -0.01,0.06 -0.01,0.05 -0.01,0.06 -0.01,0.06 -0.01,0.05 -0.01,0.06 -0.02,0.06 -0.01,0.06 -0.02,0.06 -0.02,0.06 -0.02,0.06 -0.02,0.06 -0.02,0.06 -0.03,0.06 -0.03,0.06 -0.02,0.06 -0.04,0.05 -0.03,0.06 -0.03,0.06 c -0.41,0.61 -1.02,0.72 -1.38,0.72 -1.11,0 -2,-1.05 -2,-2.34 0,-1.31 0.95,-2.35 2.15,-2.35 0.63,0 1.2,0.23 1.58,0.51 l -0.06,0.65 c -0.62,-0.52 -1.28,-0.56 -1.51,-0.56 -0.8,0 -1.43,0.71 -1.46,1.68 l 0.05,0.55 c 0.15,0.76 0.68,1.26 1.25,1.26 0.52,0 1.08,-0.34 1.21,-1.26 h -2.46 l -0.05,-0.55 z"
         id="path8319"
         inkscape:connector-curvature="0" /><path
         style="fill:#ff0000;stroke-width:0"
         d="m 235.69,710.97 h 1.41 v 0.57 h -1.41 v 1.27 H 235 v -1.27 h -0.87 v -0.57 h 0.84 v -2.66 c 0,-0.6 0.14,-1.29 0.83,-1.29 0.7,0 1.21,0.24 1.46,0.37 l -0.16,0.59 c -0.26,-0.21 -0.58,-0.33 -0.9,-0.33 -0.37,0 -0.51,0.3 -0.51,0.83 z"
         id="path8321"
         inkscape:connector-curvature="0" /><path
         style="fill:#ff0000;stroke-width:0"
         d="m 241.67,709.3 0,0.04 0,0.03 0,0.04 0,0.04 0,0.04 0,0.04 -0.01,0.05 0,0.05 0,0.04 0,0.05 -0.01,0.06 0,0.05 -0.01,0.05 -0.01,0.06 0,0.05 -0.01,0.06 -0.01,0.06 -0.02,0.05 -0.01,0.06 -0.01,0.06 -0.02,0.06 -0.01,0.06 -0.02,0.06 -0.02,0.06 -0.02,0.06 -0.03,0.06 -0.02,0.06 -0.03,0.06 -0.03,0.06 -0.03,0.05 -0.03,0.06 -0.04,0.06 c -0.41,0.61 -1.02,0.72 -1.37,0.72 -1.11,0 -2.01,-1.05 -2.01,-2.34 0,-1.31 0.96,-2.35 2.15,-2.35 0.63,0 1.2,0.23 1.59,0.51 l -0.06,0.65 c -0.63,-0.52 -1.29,-0.56 -1.52,-0.56 -0.79,0 -1.43,0.71 -1.46,1.68 l 0.05,0.55 c 0.16,0.76 0.69,1.26 1.26,1.26 0.51,0 1.07,-0.34 1.2,-1.26 h -2.46 l -0.05,-0.55 z"
         id="path8323"
         inkscape:connector-curvature="0" /><path
         style="fill:#ff0000;stroke-width:0"
         d="m 243.54,709.26 0,0.09 0,0.09 0.01,0.09 0.02,0.08 0.02,0.09 0.02,0.08 0.02,0.08 0.03,0.08 0.04,0.08 0.03,0.07 0.04,0.08 0.04,0.06 0.05,0.07 0.05,0.07 0.05,0.06 0.06,0.06 0.05,0.05 0.06,0.06 0.07,0.05 0.06,0.04 0.07,0.05 0.07,0.04 0.08,0.03 0.07,0.04 0.08,0.03 0.08,0.02 0.08,0.03 0.09,0.02 0.08,0.01 0.09,0.02 0.09,0 0.09,0.01 v 0.66 c -0.89,-0.01 -1.44,-0.49 -1.74,-0.95 v 0.9 h -0.7 v -4.47 h 0.75 z"
         id="path8325"
         inkscape:connector-curvature="0" /></g>    <path
       transform="matrix(1.8124999,0,0,1.8124999,-163.49997,-666.73171)"
       d="m 280,627.36218 c 0,2.76143 -2.23858,5 -5,5 -2.76142,0 -5,-2.23857 -5,-5 0,-2.76142 2.23858,-5 5,-5 2.76142,0 5,2.23858 5,5 z"
       sodipodi:ry="5"
       sodipodi:rx="5"
       sodipodi:cy="627.36218"
       sodipodi:cx="275"
       id="path2902-7"
       style="opacity:0.98000004;fill:#ff0000;fill-opacity:1;stroke:#ff0000;stroke-width:1.03448319;stroke-miterlimit:4;stroke-opacity:1;stroke-dasharray:none"
       sodipodi:type="arc" />
    <path
       id="path5393"
       d="m 273.99999,470.36219 c 60,0 60,0 60,0"
       style="fill:none;stroke:#ff0000;stroke-width:2;stroke-linecap:butt;stroke-linejoin:miter;stroke-miterlimit:4;stroke-opacity:1;stroke-dasharray:none"
       inkscape:connector-curvature="0" />
    <path
       style="fill:none;stroke:#008000;stroke-width:1.99999988;stroke-linecap:butt;stroke-linejoin:miter;stroke-miterlimit:4;stroke-opacity:1;stroke-dasharray:15.99999998, 7.99999998;stroke-dashoffset:0;marker-start:none;marker-end:url(#Arrow2LendN-6)"
       d="m 344,470.36218 c 154,-48 86,-218 -56,-198"
       id="path7671"
       sodipodi:nodetypes="cc"
       inkscape:connector-curvature="0" />
    <g
       style="font-style:normal;font-variant:normal;font-weight:normal;font-stretch:normal;letter-spacing:normal;word-spacing:normal;text-anchor:start;fill:#008000;fill-opacity:1;fill-rule:evenodd;stroke:#000000;stroke-linecap:butt;stroke-linejoin:miter;stroke-miterlimit:10.43299961;stroke-opacity:1;stroke-dasharray:none;stroke-dashoffset:0"
       ns0:preamble=""
       ns0:text="\\textsf{teaches}"
       word-spacing="normal"
       letter-spacing="normal"
       font-size-adjust="none"
       font-stretch="normal"
       font-weight="normal"
       font-variant="normal"
       font-style="normal"
       stroke-miterlimit="10.433"
       xml:space="preserve"
       transform="matrix(3,0,0,-3,-231.47,2490.7922)"
       id="g3199"><path
         id="path3201"
         d="m 225.18,710.97 h 1.4 v 0.57 h -1.4 v 1.27 h -0.69 v -1.27 h -0.87 v -0.57 h 0.84 v -2.66 c 0,-0.6 0.14,-1.29 0.83,-1.29 0.69,0 1.2,0.24 1.45,0.37 l -0.16,0.59 c -0.26,-0.21 -0.58,-0.33 -0.9,-0.33 -0.36,0 -0.5,0.3 -0.5,0.83 z"
         style="fill:#008000;stroke-width:0"
         inkscape:connector-curvature="0" /><path
         id="path3203"
         d="m 231.16,709.3 0,0.04 0,0.03 0,0.04 -0.01,0.04 0,0.04 0,0.04 0,0.05 0,0.05 0,0.04 -0.01,0.05 0,0.06 -0.01,0.05 0,0.05 -0.01,0.06 -0.01,0.05 -0.01,0.06 -0.01,0.06 -0.01,0.05 -0.01,0.06 -0.02,0.06 -0.01,0.06 -0.02,0.06 -0.02,0.06 -0.02,0.06 -0.02,0.06 -0.02,0.06 -0.03,0.06 -0.02,0.06 -0.03,0.06 -0.03,0.05 -0.04,0.06 -0.03,0.06 c -0.41,0.61 -1.02,0.72 -1.38,0.72 -1.1,0 -2,-1.05 -2,-2.34 0,-1.31 0.96,-2.35 2.15,-2.35 0.63,0 1.2,0.23 1.59,0.51 l -0.06,0.65 c -0.63,-0.52 -1.29,-0.56 -1.52,-0.56 -0.8,0 -1.43,0.71 -1.46,1.68 l 0.05,0.55 c 0.16,0.76 0.68,1.26 1.25,1.26 0.52,0 1.08,-0.34 1.21,-1.26 h -2.46 l -0.05,-0.55 z"
         style="fill:#008000;stroke-width:0"
         inkscape:connector-curvature="0" /><path
         id="path3205"
         d="m 235.43,710 0,0.1 0,0.09 -0.01,0.09 -0.02,0.09 -0.02,0.08 -0.02,0.09 -0.02,0.08 -0.03,0.08 -0.04,0.07 -0.03,0.08 -0.04,0.07 -0.04,0.07 -0.05,0.07 -0.05,0.06 -0.05,0.06 -0.05,0.06 -0.06,0.05 -0.06,0.05 -0.06,0.05 -0.07,0.05 -0.06,0.04 -0.07,0.04 -0.07,0.04 -0.08,0.03 -0.07,0.03 -0.08,0.02 -0.08,0.02 -0.08,0.02 -0.08,0.01 -0.08,0.01 -0.09,0.01 -0.08,0 c -0.65,0 -1.1,-0.16 -1.57,-0.43 l 0.06,-0.65 c 0.52,0.37 1.02,0.5 1.51,0.5 0.47,0 0.87,-0.4 0.87,-1.14 v -0.43 c -1.5,-0.02 -2.76,-0.43 -2.76,-1.31 0,-0.43 0.26,-1.23 1.13,-1.23 0.14,0 1.08,0.01 1.66,0.46 l -0.37,0.33 c -0.29,-0.18 -0.67,-0.19 -0.78,-0.19 -0.48,0 -0.93,0.23 -0.93,0.65 0,0.7 1.62,0.77 2.05,0.79 v -0.62 c 0,-0.19 0,-0.44 -0.34,-0.63 l 0.37,-0.33 v -0.35 h 0.74 z"
         style="fill:#008000;stroke-width:0"
         inkscape:connector-curvature="0" /><path
         id="path3207"
         d="m 240.33,711.28 -0.05,0.04 -0.06,0.03 -0.05,0.02 -0.05,0.03 -0.05,0.03 -0.05,0.02 -0.04,0.02 -0.05,0.02 -0.05,0.02 -0.04,0.02 -0.05,0.02 -0.04,0.02 -0.09,0.03 -0.09,0.03 -0.09,0.02 -0.09,0.02 -0.09,0.01 -0.09,0.01 -0.05,0.01 -0.05,0 -0.05,0.01 -0.05,0 -0.05,0 -0.05,0 -0.06,0 -0.05,0 c -1.39,0 -2.2,-1.2 -2.2,-2.38 0,-1.23 0.91,-2.31 2.16,-2.31 0.53,0 1.08,0.14 1.62,0.5 l -0.06,0.67 c -0.51,-0.4 -1.05,-0.54 -1.55,-0.54 -0.83,0 -1.39,0.72 -1.39,1.69 0,0.78 0.37,1.74 1.43,1.74 0.51,0 0.85,-0.08 1.4,-0.44 z"
         style="fill:#008000;stroke-width:0"
         inkscape:connector-curvature="0" /><path
         id="path3209"
         d="m 245.01,710.09 0,0.06 0,0.07 -0.01,0.06 0,0.07 -0.01,0.06 0,0.07 -0.01,0.07 -0.01,0.06 -0.02,0.07 -0.01,0.06 -0.02,0.07 -0.02,0.06 -0.03,0.07 -0.02,0.06 -0.03,0.06 -0.04,0.06 -0.04,0.06 -0.04,0.05 -0.04,0.05 -0.05,0.05 -0.05,0.05 -0.06,0.04 -0.06,0.04 -0.07,0.04 -0.04,0.02 -0.03,0.02 -0.04,0.01 -0.04,0.02 -0.04,0.01 -0.04,0.01 -0.04,0.01 -0.05,0.01 -0.05,0.01 -0.04,0.01 -0.05,0.01 -0.05,0 -0.05,0.01 -0.06,0 -0.05,0 -0.06,0 c -0.62,0 -1.09,-0.31 -1.41,-0.71 v 3.09 h -0.75 v -6.9 h 0.78 v 2.43 c 0,0.66 0.25,1.49 1,1.49 0.96,0 0.97,-0.71 0.97,-1.03 v -2.89 h 0.78 z"
         style="fill:#008000;stroke-width:0"
         inkscape:connector-curvature="0" /><path
         id="path3211"
         d="m 249.95,709.3 0,0.04 0,0.03 0,0.04 0,0.04 -0.01,0.04 0,0.04 0,0.05 0,0.05 0,0.04 -0.01,0.05 0,0.06 -0.01,0.05 0,0.05 -0.01,0.06 -0.01,0.05 -0.01,0.06 -0.01,0.06 -0.01,0.05 -0.01,0.06 -0.01,0.06 -0.02,0.06 -0.02,0.06 -0.02,0.06 -0.02,0.06 -0.02,0.06 -0.02,0.06 -0.03,0.06 -0.02,0.06 -0.03,0.06 -0.03,0.05 -0.04,0.06 -0.03,0.06 c -0.41,0.61 -1.02,0.72 -1.38,0.72 -1.1,0 -2,-1.05 -2,-2.34 0,-1.31 0.96,-2.35 2.15,-2.35 0.63,0 1.2,0.23 1.59,0.51 l -0.06,0.65 c -0.63,-0.52 -1.29,-0.56 -1.52,-0.56 -0.8,0 -1.43,0.71 -1.46,1.68 l 0.05,0.55 c 0.16,0.76 0.68,1.26 1.25,1.26 0.52,0 1.08,-0.34 1.21,-1.26 h -2.46 l -0.05,-0.55 z"
         style="fill:#008000;stroke-width:0"
         inkscape:connector-curvature="0" /><path
         id="path3213"
         d="m 253.67,711.4 -0.05,0.02 -0.05,0.02 -0.09,0.04 -0.1,0.03 -0.09,0.04 -0.08,0.02 -0.09,0.03 -0.09,0.02 -0.09,0.02 -0.08,0.02 -0.09,0.02 -0.09,0.01 -0.08,0.01 -0.09,0 -0.09,0.01 -0.09,0 -0.1,0 c -0.25,0 -1.65,0 -1.65,-1.3 0,-0.49 0.29,-0.81 0.53,-1 0.31,-0.21 0.53,-0.25 1.08,-0.36 0.36,-0.07 0.94,-0.19 0.94,-0.72 0,-0.69 -0.79,-0.69 -0.94,-0.69 -0.81,0 -1.36,0.37 -1.54,0.49 l -0.12,-0.68 c 0.32,-0.16 0.86,-0.43 1.67,-0.43 0.18,0 0.73,0 1.16,0.31 0.31,0.24 0.48,0.64 0.48,1.07 0,0.55 -0.37,0.88 -0.39,0.92 -0.39,0.34 -0.66,0.4 -1.16,0.49 -0.55,0.11 -1.01,0.21 -1.01,0.7 0,0.62 0.72,0.62 0.85,0.62 0.32,0 0.85,-0.04 1.42,-0.38 z"
         style="fill:#008000;stroke-width:0"
         inkscape:connector-curvature="0" /></g>  </g>
</svg>
