<?xml version="1.0" encoding="UTF-8" standalone="no"?>
<!-- Created with Inkscape (http://www.inkscape.org/) -->

<svg
   xmlns:dc="http://purl.org/dc/elements/1.1/"
   xmlns:cc="http://creativecommons.org/ns#"
   xmlns:rdf="http://www.w3.org/1999/02/22-rdf-syntax-ns#"
   xmlns:svg="http://www.w3.org/2000/svg"
   xmlns="http://www.w3.org/2000/svg"
   version="1.1"
   width="277.5"
   height="160"
   id="svg2"
   xml:space="preserve"><metadata
     id="metadata8"><rdf:RDF><cc:Work
         rdf:about=""><dc:format>image/svg+xml</dc:format><dc:type
           rdf:resource="http://purl.org/dc/dcmitype/StillImage" /><dc:title></dc:title></cc:Work></rdf:RDF></metadata><defs
     id="defs6" /><g
     transform="matrix(1.25,0,0,-1.25,0,160)"
     id="g10"><g
       transform="scale(0.1,0.1)"
       id="g12"><path
         d="m 18.1992,22.7617 2174.76,0 0,1237.32 -2174.76,0 0,-1237.32 z"
         id="path14"
         style="fill:none;stroke:#231f20;stroke-width:7.48344994;stroke-linecap:round;stroke-linejoin:round;stroke-miterlimit:10;stroke-opacity:1;stroke-dasharray:none" /><path
         d="m 770.602,90.082 502.199,0 0,492.117 -502.199,0 0,-492.117 z"
         id="path16"
         style="fill:none;stroke:#231f20;stroke-width:7.48344994;stroke-linecap:round;stroke-linejoin:round;stroke-miterlimit:10;stroke-opacity:1;stroke-dasharray:none" /><path
         d="m 185.238,591.199 502.563,0 0,492.84 -502.563,0 0,-492.84 z"
         id="path18"
         style="fill:none;stroke:#231f20;stroke-width:7.48344994;stroke-linecap:round;stroke-linejoin:round;stroke-miterlimit:10;stroke-opacity:1;stroke-dasharray:none" /><path
         d="m 1423.28,600.922 669.598,0 0,492.117 -669.598,0 0,-492.117 z"
         id="path20"
         style="fill:none;stroke:#231f20;stroke-width:7.48344994;stroke-linecap:round;stroke-linejoin:round;stroke-miterlimit:10;stroke-opacity:1;stroke-dasharray:none" /><path
         d="m 1908.56,859.398 0,6.84 -0.72,6.121 -1.08,7.2 -0.72,6.121 -2.16,7.199 -1.44,6.121 -1.8,6.121 -2.52,6.481 -2.88,5.398 -2.52,5.762 -3.6,5.398 -3.6,5.399 -3.6,5.402 -3.24,5.039 -4.68,4.68 -4.32,5.402 -4.32,4.316 -5.4,3.602 -5.4,4.32 -5.4,3.602 -5.04,3.238 -5.4,3.602 -6.48,2.879 -5.04,2.519 -6.12,2.879 -6.48,1.441 -6.12,1.801 -7.2,2.16 -6.12,0.719 -7.2,0.719 -6.12,1.082 -14.04,0 -7.2,-1.082 -5.76,-0.719 -7.2,-0.719 -6.48,-2.16 -6.12,-1.801 -6.12,-1.441 -6.12,-2.879 -6.48,-2.519 -5.04,-2.879 -5.4,-3.602 -6.12,-3.238 -5.4,-3.602 -4.32,-4.32 -5.4,-3.602 -4.68,-4.316 -3.96,-5.402 -4.68,-4.68 -3.6,-5.039 -3.6,-5.402 -3.6,-5.399 -3.24,-5.398 -2.52,-5.762 -2.88,-5.398 -2.52,-6.481 -1.8,-6.121 -2.16,-6.121 -1.44,-7.199 -1.08,-6.121 -0.72,-7.2 -0.72,-6.121 0,-14.039 0.72,-7.199 0.72,-6.121 1.08,-7.199 1.44,-6.121 2.16,-6.118 1.8,-6.48 2.52,-6.121 2.88,-5.758 2.52,-5.402 3.24,-6.481 3.6,-5.398 3.6,-5.403 3.6,-3.957 4.68,-5.402 3.96,-4.32 4.68,-4.68 5.4,-4.32 4.32,-3.598 5.4,-4.32 6.12,-3.602 5.4,-2.879 5.04,-2.519 6.48,-3.242 6.12,-2.161 6.12,-2.519 6.12,-1.797 6.48,-0.723 7.2,-2.16 5.76,-0.719 27.36,0 7.2,0.719 6.12,2.16 7.2,0.723 6.12,1.797 6.48,2.519 6.12,2.161 5.04,3.242 6.48,2.519 5.4,2.879 5.04,3.602 5.4,4.32 5.4,3.598 5.4,4.32 4.32,4.68 4.32,4.32 4.68,5.402 3.24,3.957 3.6,5.403 3.6,5.398 3.6,6.481 2.52,5.402 2.88,5.758 2.52,6.121 1.8,6.48 1.44,6.118 2.16,6.121 0.72,7.199 1.08,6.121 0.72,7.199 0,7.199"
         id="path22"
         style="fill:none;stroke:#231f20;stroke-width:7.48344994;stroke-linecap:round;stroke-linejoin:round;stroke-miterlimit:10;stroke-opacity:1;stroke-dasharray:none" /><path
         d="m 2009.36,859.398 -0.72,9.723 -0.72,10.438 -1.8,9.722 -2.16,9.719 -2.52,9.719 -3.24,9.722 -4.68,9.719 -4.32,8.641 -4.32,9.359 -6.12,8.641 -6.48,7.918 -6.12,9 -7.2,6.84 -6.84,7.921 -8.28,7.2 -7.92,7.2 -8.64,6.84 -10.08,6.48 -8.64,6.12 -9.72,5.4 -10.8,5.04 -10.44,4.68 -10.8,4.32 -11.16,4.32 -10.8,3.6 -12.6,2.52 -11.16,2.88 -12.6,2.52 -12.6,1.8 -11.88,0.72 -12.6,1.08 -13.32,0.72 -13.32,-0.72 -12.6,-1.08 -12.24,-0.72 -12.24,-1.8 -12.6,-2.52 -11.16,-2.88 -11.88,-2.52 -11.52,-3.6 -11.16,-4.32 -10.8,-4.32 -10.44,-4.68 -9.72,-5.04 -10.8,-5.4 -9,-6.12 -9.72,-6.48 -7.92,-6.84 -9,-7.2 -7.92,-7.2 -6.84,-7.921 -7.2,-6.84 -6.12,-9 -6.48,-7.918 -6.12,-8.641 -4.32,-9.359 -4.32,-8.641 -4.32,-9.719 -3.6,-9.722 -2.88,-9.719 -1.8,-9.719 -1.8,-9.722 -0.72,-10.438 0,-20.519 0.72,-9.723 1.8,-10.797 1.8,-9.723 2.88,-9.359 3.6,-10.078 4.32,-8.641 4.32,-9.722 4.32,-9 6.12,-7.918 6.48,-9 6.12,-7.922 7.2,-7.918 6.84,-7.922 7.92,-7.199 9,-6.84 7.92,-6.481 9.72,-6.121 9,-6.117 10.8,-5.039 9.72,-5.402 10.44,-5.399 10.8,-4.32 11.16,-3.602 11.52,-3.597 11.88,-3.602 11.16,-2.519 12.6,-2.161 12.24,-1.441 12.24,-1.801 12.6,-1.078 26.64,0 12.6,1.078 11.88,1.801 12.6,1.441 12.6,2.161 11.16,2.519 12.6,3.602 10.8,3.597 11.16,3.602 10.8,4.32 10.44,5.399 10.8,5.402 9.72,5.039 8.64,6.117 10.08,6.121 8.64,6.481 7.92,6.84 8.28,7.199 6.84,7.922 7.2,7.918 6.12,7.922 6.48,9 6.12,7.918 4.32,9 4.32,9.722 4.68,8.641 3.24,10.078 2.52,9.359 2.16,9.723 1.8,10.797 0.72,9.723 0.72,10.796"
         id="path24"
         style="fill:none;stroke:#231f20;stroke-width:7.48344994;stroke-linecap:round;stroke-linejoin:round;stroke-miterlimit:10;stroke-opacity:1;stroke-dasharray:none" /><g
         transform="scale(10,10)"
         id="g26"><text
           transform="matrix(1,0,0,-1,23.9602,110.492)"
           id="text28"><tspan
             x="0"
             y="0"
             id="tspan30"
             style="font-size:11.77200031px;font-variant:normal;font-weight:normal;writing-mode:lr-tb;fill:#231f20;fill-opacity:1;fill-rule:nonzero;stroke:none;font-family:Times_New_RomanITALIC;-inkscape-font-specification:Times_New_RomanITALIC">M</tspan></text>
<text
           transform="matrix(1,0,0,-1,33.752,110.492)"
           id="text32"><tspan
             x="0 5.1839886 13.680088 19.548054 24.767971"
             y="0"
             id="tspan34"
             style="font-size:11.77200031px;font-variant:normal;font-weight:normal;writing-mode:lr-tb;fill:#231f20;fill-opacity:1;fill-rule:nonzero;stroke:none;font-family:Times_New_RomanITALIC;-inkscape-font-specification:Times_New_RomanITALIC">ember</tspan><tspan
             x="55.980099 61.848064 65.124237 70.992203 75.528145"
             y="50.183998"
             id="tspan36"
             style="font-size:11.77200031px;font-variant:normal;font-weight:normal;writing-mode:lr-tb;fill:#231f20;fill-opacity:1;fill-rule:nonzero;stroke:none;font-family:Times_New_RomanITALIC;-inkscape-font-specification:Times_New_RomanITALIC">Store</tspan><tspan
             x="132.58791 139.75197 143.02814 146.26797"
             y="-1.6562001"
             id="tspan38"
             style="font-size:11.77200031px;font-variant:normal;font-weight:normal;writing-mode:lr-tb;fill:#231f20;fill-opacity:1;fill-rule:nonzero;stroke:none;font-family:Times_New_RomanITALIC;-inkscape-font-specification:Times_New_RomanITALIC">Film</tspan><tspan
             x="-13.2481 -9.9719286 -4.1039634 -0.86412078 5.0038443 10.224161"
             y="71.855904"
             id="tspan40"
             style="font-size:11.77200031px;font-variant:normal;font-weight:normal;writing-mode:lr-tb;fill:#231f20;fill-opacity:1;fill-rule:nonzero;stroke:none;font-family:Times_New_RomanITALIC;-inkscape-font-specification:Times_New_RomanITALIC">joined</tspan><tspan
             x="42.695999 47.915916 53.783882 59.651848 66.81591 72.683876 77.255753 81.828026 87.695992"
             y="-1.6562001"
             id="tspan42"
             style="font-size:11.77200031px;font-variant:normal;font-weight:normal;writing-mode:lr-tb;fill:#231f20;fill-opacity:1;fill-rule:nonzero;stroke:none;font-family:Times_New_RomanITALIC;-inkscape-font-specification:Times_New_RomanITALIC">canBorrow</tspan><tspan
             x="117.9718 123.19212 129.06009 132.29993 135.5761 140.79601 145.98 149.25578 152.49602 158.36398"
             y="76.896103"
             id="tspan44"
             style="font-size:11.77200031px;font-variant:normal;font-weight:normal;writing-mode:lr-tb;fill:#231f20;fill-opacity:1;fill-rule:nonzero;stroke:none;font-family:Times_New_RomanITALIC;-inkscape-font-specification:Times_New_RomanITALIC">collection</tspan></text>
</g><path
         d="m 436.16,925.641 0,-167.403"
         id="path46"
         style="fill:none;stroke:#231f20;stroke-width:7.48344994;stroke-linecap:round;stroke-linejoin:round;stroke-miterlimit:10;stroke-opacity:1;stroke-dasharray:none" /><path
         d="m 520.039,842.121 -167.039,0"
         id="path48"
         style="fill:none;stroke:#231f20;stroke-width:7.48344994;stroke-linecap:round;stroke-linejoin:round;stroke-miterlimit:10;stroke-opacity:1;stroke-dasharray:none" /><path
         d="M 376.762,900.801 494.48,782.359"
         id="path50"
         style="fill:none;stroke:#231f20;stroke-width:7.48344994;stroke-linecap:round;stroke-linejoin:round;stroke-miterlimit:10;stroke-opacity:1;stroke-dasharray:none" /><path
         d="m 496.281,900.801 -119.519,-117"
         id="path52"
         style="fill:none;stroke:#231f20;stroke-width:7.48344994;stroke-linecap:round;stroke-linejoin:round;stroke-miterlimit:10;stroke-opacity:1;stroke-dasharray:none" /><path
         d="m 1156.16,335.961 0,7.199 -1.08,6.121 -0.72,7.199 -1.08,6.122 -1.8,7.199 -1.8,6.121 -1.8,6.476 -2.52,6.122 -2.88,5.039 -3.24,6.121 -2.88,5.398 -3.24,5.402 -3.96,5.04 -3.96,5.402 -4.68,4.68 -4.68,5.039 -3.96,4.679 -4.68,3.602 -5.4,4.316 -5.04,3.602 -5.4,3.601 -5.4,3.598 -6.12,2.52 -6.48,2.519 -5.04,2.883 -6.84,1.801 -6.48,1.437 -6.12,1.801 -6.12,1.078 -7.2,0.723 -7.2,1.078 -13.32,0 -7.2,-1.078 -6.84,-0.723 -6.48,-1.078 -5.758,-1.801 -6.121,-1.437 -6.481,-1.801 -6.121,-2.883 -6.121,-2.519 -6.477,-2.52 -5.043,-3.598 -5.398,-3.601 -5.398,-3.602 -5.403,-4.316 -4.32,-3.602 -4.32,-4.679 -4.68,-5.039 -4.32,-4.68 -4.321,-5.402 -3.597,-5.04 -3.602,-5.402 -2.519,-5.398 -3.598,-6.121 -2.524,-5.039 -1.796,-6.122 -2.883,-6.476 -1.797,-6.121 -1.442,-7.199 -1.082,-6.122 -0.718,-7.199 0,-6.121 -0.719,-7.199 0.719,-6.84 0,-7.199 0.718,-6.121 1.082,-6.84 1.442,-6.481 1.797,-6.121 2.883,-6.121 1.796,-6.476 2.524,-6.121 3.598,-5.039 2.519,-6.481 3.602,-5.043 3.597,-5.398 4.321,-4.321 4.32,-5.398 4.68,-4.68 4.32,-4.32 4.32,-4.32 5.403,-3.602 5.398,-4.32 5.398,-3.598 5.043,-2.883 6.477,-3.238 6.121,-2.879 6.121,-1.801 6.481,-2.519 6.121,-1.801 5.758,-1.078 6.48,-1.442 6.84,-1.082 27.72,0 7.2,1.082 6.12,1.442 6.12,1.078 6.48,1.801 6.84,2.519 5.04,1.801 6.48,2.879 6.12,3.238 5.4,2.883 5.4,3.598 5.04,4.32 5.4,3.602 4.68,4.32 3.96,4.32 4.68,4.68 4.68,5.398 3.96,4.321 3.96,5.398 3.24,5.043 2.88,6.481 3.24,5.039 2.88,6.121 2.52,6.476 1.8,6.121 1.8,6.121 1.8,6.481 1.08,6.84 0.72,6.121 1.08,7.199 0,6.84"
         id="path54"
         style="fill:none;stroke:#231f20;stroke-width:7.48344994;stroke-linecap:round;stroke-linejoin:round;stroke-miterlimit:10;stroke-opacity:1;stroke-dasharray:none" /><path
         d="m 830,335.961 -10.441,2.16 -10.438,1.438 -20.519,3.601 -20.524,4.32 -19.437,6.481 -19.442,6.117 -19.437,7.203 -17.641,7.918 -18.723,8.641 -17.636,9 -16.922,10.801 -16.918,10.437 -15.844,11.524 -15.117,12.238 -15.121,12.601 -14.039,13.321 -13.321,14.039 -13.32,14.039 -11.16,15.121 -11.879,15.117 -10.441,15.844 -10.801,16.918 -8.641,16.922 -9,16.558 -6.84,18 -7.199,17.282 -6.121,18.718 -2.879,9.719 -2.519,9 -1.801,9.723 -1.801,9.718 -1.797,9.719 -1.801,9.723 -1.8,9.719 -0.719,9.718 -0.723,9.719 -1.078,9.723 0,19.437"
         id="path56"
         style="fill:none;stroke:#231f20;stroke-width:7.48344994;stroke-linecap:round;stroke-linejoin:round;stroke-miterlimit:10;stroke-opacity:1;stroke-dasharray:none" /><path
         d="m 887.961,332.719 -78.121,-33.84 1.801,4.68 2.519,4.32 1.801,5.043 1.078,4.68 1.801,4.32 0.719,5.398 0.722,4.321 0,19.441 -0.722,5.398 -0.719,4.321 -1.078,5.398 -1.801,4.321 -1.801,5.402 73.801,-43.203"
         id="path58"
         style="fill:#231f20;fill-opacity:1;fill-rule:evenodd;stroke:none" /><path
         d="m 1148.96,292.762 21.24,1.078 21.96,0.719 21.24,1.8 20.52,3.243 21.24,3.957 20.52,4.32 20.16,5.043 19.44,5.398 19.44,7.2 18.72,7.199 18.72,7.922 17.64,8.64 17.64,9 16.56,9.719 17.28,10.441 15.84,11.879 14.76,11.16 15.12,11.52 14.4,13.32 13.32,13.321 12.24,13.32 12.6,14.039 11.16,15.121 10.8,15.121 9.72,15.117 9.72,15.84 7.92,16.563 7.2,17.277 6.84,16.563 2.88,9 2.52,8.64 2.88,9 2.52,9 1.8,8.637 1.8,8.641"
         id="path60"
         style="fill:none;stroke:#231f20;stroke-width:7.48344994;stroke-linecap:round;stroke-linejoin:round;stroke-miterlimit:10;stroke-opacity:1;stroke-dasharray:none" /><path
         d="m 1623.44,689.121 29.88,-79.562 -3.96,2.882 -4.68,2.52 -4.32,1.801 -4.32,1.437 -5.4,1.442 -4.32,1.441 -4.68,1.078 -5.4,0.719 -14.76,0 -4.32,-0.719 -5.4,-1.078 -4.68,-0.723 -5.4,-0.718 -4.32,-2.161 46.08,71.641"
         id="path62"
         style="fill:#231f20;fill-opacity:1;fill-rule:evenodd;stroke:none" /><path
         d="m 496.281,900.801 0,9.719 1.078,5.039 1.442,4.679 1.801,5.403 2.16,4.32 2.519,5.398 2.52,4.321 3.597,4.32 3.243,4.68 3.961,5.398 4.316,4.32 4.32,4.321 4.68,4.679 5.402,4.321 5.039,4.32 6.121,4.32 6.122,3.602 6.476,4.32 6.121,4.68 7.199,3.598 6.84,4.321 7.922,3.6 8.281,4.32 7.918,3.6 8.641,3.24 7.918,3.96 9,3.24 9.723,3.6 8.64,3.6 10.078,3.6 10.442,3.24 9.719,2.88 10.8,3.6 10.442,2.52 10.797,3.6 21.961,5.4 23.761,5.04 24.117,5.4 24.84,4.68 25.922,4.32 25.199,3.6 27.719,3.24 27.363,3.6 28.438,2.88 28.441,1.44 29.16,2.16 29.88,0.72 30.24,1.08 77.04,0 21.96,-1.08 23.04,-0.72 22.32,-1.08 23.04,-1.08 21.24,-1.44 21.96,-1.08 21.6,-1.8 20.16,-2.52 21.24,-1.8 19.44,-2.52 20.52,-2.88 19.44,-2.52 18.36,-2.52 18.72,-3.6 18,-2.88 17.28,-3.6 16.92,-3.24 16.2,-3.6 15.84,-4.32 15.12,-3.96 14.76,-3.96 14.4,-4.68 13.32,-4.68 12.24,-3.96 11.52,-4.68 11.52,-5.4 10.44,-5.04 10.08,-4.68 8.64,-5.4 7.92,-5.039"
         id="path64"
         style="fill:none;stroke:#231f20;stroke-width:7.48344994;stroke-linecap:round;stroke-linejoin:round;stroke-miterlimit:10;stroke-opacity:1;stroke-dasharray:none" /><path
         d="m 1676,949.398 -74.52,41.043 4.32,0.719 5.4,1.801 4.32,0.719 4.32,1.8 5.4,1.801 4.32,2.52 3.6,1.799 4.32,3.6 3.96,2.52 3.96,2.52 7.2,7.2 2.88,3.6 3.24,4.68 2.88,4.32 2.52,4.32 11.88,-84.962"
         id="path66"
         style="fill:#231f20;fill-opacity:1;fill-rule:evenodd;stroke:none" /></g></g></svg>