<?xml version="1.0" encoding="UTF-8" standalone="no"?>
<!-- Created with Inkscape (http://www.inkscape.org/) -->

<svg
   xmlns:ns0="http://www.iki.fi/pav/software/textext/"
   xmlns:dc="http://purl.org/dc/elements/1.1/"
   xmlns:cc="http://creativecommons.org/ns#"
   xmlns:rdf="http://www.w3.org/1999/02/22-rdf-syntax-ns#"
   xmlns:svg="http://www.w3.org/2000/svg"
   xmlns="http://www.w3.org/2000/svg"
   xmlns:xlink="http://www.w3.org/1999/xlink"
   xmlns:sodipodi="http://sodipodi.sourceforge.net/DTD/sodipodi-0.dtd"
   xmlns:inkscape="http://www.inkscape.org/namespaces/inkscape"
   width="213.53125"
   height="120.75"
   id="svg2"
   version="1.1"
   inkscape:version="0.48.1 r9760"
   sodipodi:docname="syllogism-mortals-venn-diagram.svg">
  <sodipodi:namedview
     id="base"
     pagecolor="#ffffff"
     bordercolor="#666666"
     borderopacity="1.0"
     inkscape:pageopacity="0.0"
     inkscape:pageshadow="2"
     inkscape:zoom="1.979899"
     inkscape:cx="105.51629"
     inkscape:cy="108.8636"
     inkscape:document-units="px"
     inkscape:current-layer="layer1"
     showgrid="false"
     inkscape:window-width="1366"
     inkscape:window-height="711"
     inkscape:window-x="0"
     inkscape:window-y="26"
     inkscape:window-maximized="1"
     fit-margin-top="1"
     fit-margin-right="1"
     fit-margin-bottom="1"
     fit-margin-left="1"
     showguides="true"
     inkscape:guide-bbox="true">
    <sodipodi:guide
       id="guide4040"
       position="61.828526,107.78152"
       orientation="0,1" />
  </sodipodi:namedview>
  <defs
     id="defs4" />
  <metadata
     id="metadata7">
    <rdf:RDF>
      <cc:Work
         rdf:about="">
        <dc:format>image/svg+xml</dc:format>
        <dc:type
           rdf:resource="http://purl.org/dc/dcmitype/StillImage" />
        <dc:title />
      </cc:Work>
    </rdf:RDF>
  </metadata>
  <g
     transform="translate(-167.625,-237.125)"
     id="layer1"
     inkscape:groupmode="layer"
     inkscape:label="Layer 1">
    <path
       style="fill:#999999;stroke:#000000;stroke-width:0.17857143;stroke-miterlimit:4;stroke-opacity:1;stroke-dasharray:none;stroke-dashoffset:0"
       d="m 74.60964,43.196318 c -5.739112,2.202297 -10.887617,5.873206 -14.890021,10.523931 -4.852879,5.509848 -8.058712,12.509472 -8.915782,19.80531 0.109445,1.556252 2.109049,1.450796 3.191964,1.914062 9.224536,2.633479 19.457396,1.45712 27.890625,-3.108259 2.14373,-1.21428 4.367109,-2.490884 6.098498,-4.221603 C 87.849908,67.173995 86.735981,66.655986 86.208358,65.905587 80.169715,60.002123 76.300119,51.970468 75.268122,43.586943 75.208242,43.311165 74.874055,43.133202 74.60964,43.196318 z"
       id="path4031"
       inkscape:connector-curvature="0"
       transform="translate(175.88209,238.79236)" />
    <path
       style="fill:#999999;fill-opacity:1;fill-rule:nonzero;stroke:#000000;stroke-width:0.17857143;stroke-miterlimit:4;stroke-opacity:1;stroke-dasharray:none;stroke-dashoffset:0"
       d="m 87.332855,40.707478 c -3.91888,0.105299 -7.881637,0.724455 -11.540179,2.142858 -0.624114,0.871803 0.02184,2.066477 0.06543,3.043994 1.4569,8.339664 5.98721,16.059002 12.37319,21.570961 0.956623,0.238148 1.498362,-0.974316 2.17239,-1.450657 5.66523,-5.561718 9.557965,-12.935595 10.795764,-20.809757 0.0792,-0.826053 0.73724,-2.2581 -0.59444,-2.352501 -4.26611,-1.421977 -8.755352,-2.230815 -13.272151,-2.144898 z"
       id="path4033"
       inkscape:connector-curvature="0"
       transform="translate(175.88209,238.79236)" />
    <path
       style="fill:#999999;fill-opacity:1;fill-rule:nonzero;stroke:#000000;stroke-width:0.17857143;stroke-miterlimit:4;stroke-opacity:1;stroke-dasharray:none;stroke-dashoffset:0"
       d="m 101.88308,43.725336 c -0.69888,1.356788 -0.58721,2.994817 -1.06027,4.447545 -1.754686,7.382423 -5.972396,13.985118 -11.413721,19.20701 -1.039241,0.857924 0.575031,1.482259 1.129122,1.987186 5.757723,4.230554 12.760909,6.867702 19.899489,7.253843 4.97491,0.173632 10.06818,-0.281664 14.73671,-2.04298 0.48125,-0.753609 -0.11178,-1.818952 -0.13843,-2.694122 -1.91886,-11.677192 -9.86434,-22.022413 -20.40882,-27.299179 -0.85743,-0.278051 -1.82361,-1.277743 -2.74408,-0.859303 z"
       id="path4323"
       inkscape:connector-curvature="0"
       transform="translate(175.88209,238.79236)" />
    <path
       transform="translate(175.88209,238.79236)"
       inkscape:connector-curvature="0"
       id="path4075"
       d="m 112.09513,1.6494451 c -8.34402,0.1086585 -16.585239,3.1453605 -23.046877,8.4319199 -0.417031,0.902633 0.888107,1.44407 1.333178,2.129473 7.331874,7.102746 11.718509,17.243386 11.419109,27.507802 0.10379,1.126475 -0.19552,2.336768 0.16624,3.4096 10.71955,4.402571 19.38061,13.733403 22.39397,24.955357 0.57506,1.844861 0.81408,3.792448 1.23326,5.664062 0.80774,0.920729 1.99469,-0.233142 2.86356,-0.484307 7.70613,-3.5593 14.03732,-9.849507 17.91943,-17.359564 5.28829,-10.305259 5.26109,-23.124491 0.009,-33.417289 C 140.5551,10.605418 128.06065,2.1793212 114.74575,1.694426 113.86302,1.649245 112.97847,1.635111 112.09471,1.649445 z"
       style="fill:#999999;fill-opacity:1;fill-rule:nonzero;stroke:#000000;stroke-width:0.17857143;stroke-miterlimit:4;stroke-opacity:1;stroke-dasharray:none;stroke-dashoffset:0" />
    <path
       d="m 338.57143,313.07648 c 0,42.99931 -34.85782,77.85714 -77.85714,77.85714 -42.99931,0 -77.85714,-34.85783 -77.85714,-77.85714 0,-42.99931 34.85783,-77.85714 77.85714,-77.85714 42.99932,0 77.85714,34.85783 77.85714,77.85714 z"
       sodipodi:ry="77.85714"
       sodipodi:rx="77.85714"
       sodipodi:cy="313.07648"
       sodipodi:cx="260.71429"
       id="path2985"
       style="fill:none;stroke:#000000;stroke-width:2.06741571;stroke-miterlimit:4;stroke-opacity:1;stroke-dasharray:none;stroke-dashoffset:0"
       sodipodi:type="arc"
       transform="matrix(0.48369563,0,0,0.48369563,113.89364,126.64276)" />
    <path
       d="m 338.57143,313.07648 c 0,42.99931 -34.85782,77.85714 -77.85714,77.85714 -42.99931,0 -77.85714,-34.85783 -77.85714,-77.85714 0,-42.99931 34.85783,-77.85714 77.85714,-77.85714 42.99932,0 77.85714,34.85783 77.85714,77.85714 z"
       sodipodi:ry="77.85714"
       sodipodi:rx="77.85714"
       sodipodi:cy="313.07648"
       sodipodi:cx="260.71429"
       id="path2985-8"
       style="fill:none;stroke:#000000;stroke-width:2.06741571;stroke-miterlimit:4;stroke-opacity:1;stroke-dasharray:none;stroke-dashoffset:0"
       sodipodi:type="arc"
       transform="matrix(0.48369563,0,0,0.48369563,162.56143,126.51689)" />
    <path
       d="m 338.57143,313.07648 c 0,42.99931 -34.85782,77.85714 -77.85714,77.85714 -42.99931,0 -77.85714,-34.85783 -77.85714,-77.85714 0,-42.99931 34.85783,-77.85714 77.85714,-77.85714 42.99932,0 77.85714,34.85783 77.85714,77.85714 z"
       sodipodi:ry="77.85714"
       sodipodi:rx="77.85714"
       sodipodi:cy="313.07648"
       sodipodi:cx="260.71429"
       id="path2985-8-9"
       style="fill:none;stroke:#000000;stroke-width:2.06741571;stroke-miterlimit:4;stroke-opacity:1;stroke-dasharray:none;stroke-dashoffset:0"
       sodipodi:type="arc"
       transform="matrix(0.48369563,0,0,0.48369563,137.81144,165.62403)" />
    <g
       id="g4203"
       style="stroke-width:0.0000001"
       ns0:page_width=""
       ns0:preamble="/home/aidan/Thesis/images/preamble.tex"
       ns0:text="Has Roots"
       transform="matrix(1.25,0,0,1.25,11.809747,184.89476)">
      <defs
         id="defs4205">
        <g
           id="g4207">
          <symbol
             id="textext-06613cae-0"
             overflow="visible"
             style="overflow:visible">
            <path
               id="path4210"
               d="m 7.140625,0 0,-0.3125 -0.25,0 c -0.765625,0 -0.78125,-0.109375 -0.78125,-0.46875 l 0,-5.25 C 6.109375,-6.390625 6.125,-6.5 6.890625,-6.5 l 0.25,0 0,-0.3125 c -0.359375,0.03125 -1.09375,0.03125 -1.46875,0.03125 -0.375,0 -1.125,0 -1.46875,-0.03125 l 0,0.3125 0.234375,0 c 0.765625,0 0.78125,0.109375 0.78125,0.46875 l 0,2.328125 -2.96875,0 0,-2.328125 C 2.25,-6.390625 2.265625,-6.5 3.03125,-6.5 l 0.234375,0 0,-0.3125 c -0.34375,0.03125 -1.078125,0.03125 -1.46875,0.03125 -0.375,0 -1.125,0 -1.46875,-0.03125 l 0,0.3125 0.234375,0 c 0.765625,0 0.796875,0.109375 0.796875,0.46875 l 0,5.25 c 0,0.359375 -0.03125,0.46875 -0.796875,0.46875 l -0.234375,0 0,0.3125 c 0.34375,-0.03125 1.09375,-0.03125 1.46875,-0.03125 0.375,0 1.125,0 1.46875,0.03125 l 0,-0.3125 -0.234375,0 C 2.265625,-0.3125 2.25,-0.421875 2.25,-0.78125 l 0,-2.609375 2.96875,0 0,2.609375 c 0,0.359375 -0.015625,0.46875 -0.78125,0.46875 l -0.234375,0 0,0.3125 c 0.34375,-0.03125 1.078125,-0.03125 1.453125,-0.03125 0.390625,0 1.125,0 1.484375,0.03125 z m 0,0"
               style="stroke:none"
               inkscape:connector-curvature="0" />
          </symbol>
          <symbol
             id="textext-06613cae-1"
             overflow="visible"
             style="overflow:visible">
            <path
               id="path4213"
               d="m 4.8125,-0.890625 0,-0.5625 -0.25,0 0,0.5625 C 4.5625,-0.3125 4.3125,-0.25 4.203125,-0.25 3.875,-0.25 3.84375,-0.703125 3.84375,-0.75 l 0,-1.984375 c 0,-0.421875 0,-0.8125 -0.359375,-1.1875 C 3.09375,-4.3125 2.59375,-4.46875 2.109375,-4.46875 c -0.8125,0 -1.5,0.46875 -1.5,1.125 0,0.296875 0.203125,0.46875 0.453125,0.46875 0.28125,0 0.46875,-0.203125 0.46875,-0.453125 0,-0.125 -0.0625,-0.453125 -0.515625,-0.453125 C 1.28125,-4.140625 1.78125,-4.25 2.09375,-4.25 c 0.484375,0 1.0625,0.390625 1.0625,1.28125 l 0,0.359375 C 2.640625,-2.578125 1.9375,-2.546875 1.3125,-2.25 c -0.75,0.34375 -1,0.859375 -1,1.296875 0,0.8125 0.96875,1.0625 1.59375,1.0625 0.671875,0 1.125,-0.40625 1.3125,-0.859375 0.046875,0.390625 0.3125,0.8125 0.78125,0.8125 0.203125,0 0.8125,-0.140625 0.8125,-0.953125 z m -1.65625,-0.5 c 0,0.9375 -0.71875,1.28125 -1.171875,1.28125 -0.484375,0 -0.890625,-0.34375 -0.890625,-0.84375 0,-0.546875 0.40625,-1.375 2.0625,-1.4375 z m 0,0"
               style="stroke:none"
               inkscape:connector-curvature="0" />
          </symbol>
          <symbol
             id="textext-06613cae-2"
             overflow="visible"
             style="overflow:visible">
            <path
               id="path4216"
               d="m 3.59375,-1.28125 c 0,-0.515625 -0.296875,-0.828125 -0.421875,-0.9375 C 2.84375,-2.546875 2.453125,-2.625 2.03125,-2.703125 1.46875,-2.8125 0.8125,-2.9375 0.8125,-3.515625 c 0,-0.359375 0.25,-0.765625 1.109375,-0.765625 1.09375,0 1.15625,0.90625 1.171875,1.203125 0,0.09375 0.109375,0.09375 0.109375,0.09375 0.140625,0 0.140625,-0.046875 0.140625,-0.234375 l 0,-1.015625 c 0,-0.15625 0,-0.234375 -0.109375,-0.234375 -0.046875,0 -0.078125,0 -0.203125,0.125 -0.03125,0.03125 -0.125,0.125 -0.171875,0.15625 -0.375,-0.28125 -0.78125,-0.28125 -0.9375,-0.28125 -1.21875,0 -1.59375,0.671875 -1.59375,1.234375 0,0.34375 0.15625,0.625 0.421875,0.84375 0.328125,0.25 0.609375,0.3125 1.328125,0.453125 0.21875,0.046875 1.03125,0.203125 1.03125,0.921875 0,0.5 -0.34375,0.90625 -1.125,0.90625 -0.84375,0 -1.203125,-0.5625 -1.390625,-1.421875 C 0.5625,-1.65625 0.5625,-1.6875 0.453125,-1.6875 c -0.125,0 -0.125,0.0625 -0.125,0.234375 l 0,1.328125 c 0,0.171875 0,0.234375 0.109375,0.234375 0.046875,0 0.0625,-0.015625 0.25,-0.203125 0.015625,-0.015625 0.015625,-0.03125 0.203125,-0.21875 0.4375,0.40625 0.890625,0.421875 1.09375,0.421875 1.140625,0 1.609375,-0.671875 1.609375,-1.390625 z m 0,0"
               style="stroke:none"
               inkscape:connector-curvature="0" />
          </symbol>
          <symbol
             id="textext-06613cae-3"
             overflow="visible"
             style="overflow:visible">
            <path
               id="path4219"
               d="m 7.296875,-0.875 c 0,-0.0625 0,-0.171875 -0.125,-0.171875 -0.109375,0 -0.109375,0.09375 -0.125,0.15625 C 6.984375,-0.171875 6.640625,0 6.390625,0 5.90625,0 5.828125,-0.515625 5.6875,-1.4375 L 5.546875,-2.234375 C 5.375,-2.875 4.890625,-3.203125 4.34375,-3.390625 5.296875,-3.625 6.078125,-4.234375 6.078125,-5.015625 6.078125,-5.96875 4.9375,-6.8125 3.484375,-6.8125 l -3.140625,0 0,0.3125 0.25,0 c 0.765625,0 0.78125,0.109375 0.78125,0.46875 l 0,5.25 c 0,0.359375 -0.015625,0.46875 -0.78125,0.46875 l -0.25,0 0,0.3125 c 0.359375,-0.03125 1.078125,-0.03125 1.453125,-0.03125 0.390625,0 1.109375,0 1.46875,0.03125 l 0,-0.3125 -0.25,0 c -0.765625,0 -0.78125,-0.109375 -0.78125,-0.46875 l 0,-2.515625 1.140625,0 c 0.15625,0 0.578125,0 0.9375,0.34375 0.375,0.34375 0.375,0.65625 0.375,1.328125 0,0.640625 0,1.046875 0.40625,1.421875 0.40625,0.359375 0.953125,0.421875 1.25,0.421875 0.78125,0 0.953125,-0.8125 0.953125,-1.09375 z m -2.25,-4.140625 c 0,0.6875 -0.234375,1.5 -1.703125,1.5 l -1.109375,0 0,-2.578125 c 0,-0.234375 0,-0.359375 0.21875,-0.390625 C 2.546875,-6.5 2.84375,-6.5 3.046875,-6.5 c 0.890625,0 2,0.046875 2,1.484375 z m 0,0"
               style="stroke:none"
               inkscape:connector-curvature="0" />
          </symbol>
          <symbol
             id="textext-06613cae-4"
             overflow="visible"
             style="overflow:visible">
            <path
               id="path4222"
               d="M 4.6875,-2.140625 C 4.6875,-3.40625 3.703125,-4.46875 2.5,-4.46875 c -1.25,0 -2.21875,1.09375 -2.21875,2.328125 0,1.296875 1.03125,2.25 2.203125,2.25 1.203125,0 2.203125,-0.984375 2.203125,-2.25 z M 3.875,-2.21875 c 0,0.359375 0,0.90625 -0.21875,1.34375 -0.234375,0.453125 -0.671875,0.734375 -1.15625,0.734375 -0.4375,0 -0.875,-0.203125 -1.140625,-0.671875 -0.25,-0.4375 -0.25,-1.046875 -0.25,-1.40625 0,-0.390625 0,-0.921875 0.234375,-1.359375 C 1.609375,-4.03125 2.078125,-4.25 2.484375,-4.25 c 0.4375,0 0.859375,0.21875 1.125,0.65625 0.265625,0.421875 0.265625,1 0.265625,1.375 z m 0,0"
               style="stroke:none"
               inkscape:connector-curvature="0" />
          </symbol>
          <symbol
             id="textext-06613cae-5"
             overflow="visible"
             style="overflow:visible">
            <path
               id="path4225"
               d="m 3.3125,-1.234375 0,-0.5625 -0.25,0 0,0.546875 c 0,0.734375 -0.296875,1.109375 -0.671875,1.109375 -0.671875,0 -0.671875,-0.90625 -0.671875,-1.078125 l 0,-2.765625 1.4375,0 0,-0.3125 -1.4375,0 0,-1.828125 -0.25,0 c 0,0.8125 -0.296875,1.875 -1.28125,1.921875 l 0,0.21875 0.84375,0 0,2.75 c 0,1.21875 0.9375,1.34375 1.296875,1.34375 0.703125,0 0.984375,-0.703125 0.984375,-1.34375 z m 0,0"
               style="stroke:none"
               inkscape:connector-curvature="0" />
          </symbol>
        </g>
      </defs>
    </g>
    <g
       transform="matrix(1.25,0,0,1.25,-108.85714,81.250001)"
       ns0:text="Mortals"
       ns0:preamble="/home/aidan/Thesis/images/preamble.tex"
       ns0:page_width=""
       style="stroke-width:0.0000001"
       id="g3129">
      <defs
         id="defs3131">
        <g
           id="g3133">
          <symbol
             overflow="visible"
             id="textext-8ef98a9f-0"
             style="overflow:visible">
            <path
               style="stroke:none"
               d="m 8.765625,0 0,-0.3125 -0.25,0 c -0.765625,0 -0.78125,-0.109375 -0.78125,-0.46875 l 0,-5.25 C 7.734375,-6.390625 7.75,-6.5 8.515625,-6.5 l 0.25,0 0,-0.3125 -1.6875,0 C 6.8125,-6.8125 6.8125,-6.796875 6.75,-6.625 L 4.5625,-1 2.40625,-6.59375 C 2.3125,-6.8125 2.28125,-6.8125 2.046875,-6.8125 l -1.671875,0 0,0.3125 0.234375,0 c 0.765625,0 0.78125,0.109375 0.78125,0.46875 l 0,4.984375 c 0,0.265625 0,0.734375 -1.015625,0.734375 L 0.375,0 1.53125,-0.03125 2.703125,0 l 0,-0.3125 c -1.03125,0 -1.03125,-0.46875 -1.03125,-0.734375 l 0,-5.375 0.015625,0 2.40625,6.203125 C 4.140625,-0.09375 4.1875,0 4.28125,0 4.390625,0 4.421875,-0.078125 4.46875,-0.1875 L 6.921875,-6.5 l 0,5.71875 c 0,0.359375 -0.015625,0.46875 -0.78125,0.46875 l -0.234375,0 0,0.3125 c 0.359375,-0.03125 1.046875,-0.03125 1.4375,-0.03125 0.375,0 1.046875,0 1.421875,0.03125 z m 0,0"
               id="path3136"
               inkscape:connector-curvature="0" />
          </symbol>
          <symbol
             overflow="visible"
             id="textext-8ef98a9f-1"
             style="overflow:visible">
            <path
               style="stroke:none"
               d="M 4.6875,-2.140625 C 4.6875,-3.40625 3.703125,-4.46875 2.5,-4.46875 c -1.25,0 -2.21875,1.09375 -2.21875,2.328125 0,1.296875 1.03125,2.25 2.203125,2.25 1.203125,0 2.203125,-0.984375 2.203125,-2.25 z M 3.875,-2.21875 c 0,0.359375 0,0.90625 -0.21875,1.34375 -0.234375,0.453125 -0.671875,0.734375 -1.15625,0.734375 -0.4375,0 -0.875,-0.203125 -1.140625,-0.671875 -0.25,-0.4375 -0.25,-1.046875 -0.25,-1.40625 0,-0.390625 0,-0.921875 0.234375,-1.359375 C 1.609375,-4.03125 2.078125,-4.25 2.484375,-4.25 c 0.4375,0 0.859375,0.21875 1.125,0.65625 0.265625,0.421875 0.265625,1 0.265625,1.375 z m 0,0"
               id="path3139"
               inkscape:connector-curvature="0" />
          </symbol>
          <symbol
             overflow="visible"
             id="textext-8ef98a9f-2"
             style="overflow:visible">
            <path
               style="stroke:none"
               d="m 3.625,-3.796875 c 0,-0.3125 -0.3125,-0.609375 -0.734375,-0.609375 -0.734375,0 -1.09375,0.671875 -1.21875,1.09375 l 0,-1.09375 -1.390625,0.109375 0,0.3125 c 0.703125,0 0.78125,0.0625 0.78125,0.5625 l 0,2.671875 c 0,0.4375 -0.109375,0.4375 -0.78125,0.4375 l 0,0.3125 1.140625,-0.03125 c 0.390625,0 0.859375,0 1.265625,0.03125 l 0,-0.3125 -0.21875,0 c -0.734375,0 -0.75,-0.109375 -0.75,-0.46875 l 0,-1.53125 c 0,-0.984375 0.421875,-1.875 1.171875,-1.875 0.0625,0 0.09375,0 0.109375,0.015625 -0.03125,0 -0.234375,0.125 -0.234375,0.390625 0,0.265625 0.21875,0.421875 0.4375,0.421875 0.171875,0 0.421875,-0.125 0.421875,-0.4375 z m 0,0"
               id="path3142"
               inkscape:connector-curvature="0" />
          </symbol>
          <symbol
             overflow="visible"
             id="textext-8ef98a9f-3"
             style="overflow:visible">
            <path
               style="stroke:none"
               d="m 3.3125,-1.234375 0,-0.5625 -0.25,0 0,0.546875 c 0,0.734375 -0.296875,1.109375 -0.671875,1.109375 -0.671875,0 -0.671875,-0.90625 -0.671875,-1.078125 l 0,-2.765625 1.4375,0 0,-0.3125 -1.4375,0 0,-1.828125 -0.25,0 c 0,0.8125 -0.296875,1.875 -1.28125,1.921875 l 0,0.21875 0.84375,0 0,2.75 c 0,1.21875 0.9375,1.34375 1.296875,1.34375 0.703125,0 0.984375,-0.703125 0.984375,-1.34375 z m 0,0"
               id="path3145"
               inkscape:connector-curvature="0" />
          </symbol>
          <symbol
             overflow="visible"
             id="textext-8ef98a9f-4"
             style="overflow:visible">
            <path
               style="stroke:none"
               d="m 4.8125,-0.890625 0,-0.5625 -0.25,0 0,0.5625 C 4.5625,-0.3125 4.3125,-0.25 4.203125,-0.25 3.875,-0.25 3.84375,-0.703125 3.84375,-0.75 l 0,-1.984375 c 0,-0.421875 0,-0.8125 -0.359375,-1.1875 C 3.09375,-4.3125 2.59375,-4.46875 2.109375,-4.46875 c -0.8125,0 -1.5,0.46875 -1.5,1.125 0,0.296875 0.203125,0.46875 0.453125,0.46875 0.28125,0 0.46875,-0.203125 0.46875,-0.453125 0,-0.125 -0.0625,-0.453125 -0.515625,-0.453125 C 1.28125,-4.140625 1.78125,-4.25 2.09375,-4.25 c 0.484375,0 1.0625,0.390625 1.0625,1.28125 l 0,0.359375 C 2.640625,-2.578125 1.9375,-2.546875 1.3125,-2.25 c -0.75,0.34375 -1,0.859375 -1,1.296875 0,0.8125 0.96875,1.0625 1.59375,1.0625 0.671875,0 1.125,-0.40625 1.3125,-0.859375 0.046875,0.390625 0.3125,0.8125 0.78125,0.8125 0.203125,0 0.8125,-0.140625 0.8125,-0.953125 z m -1.65625,-0.5 c 0,0.9375 -0.71875,1.28125 -1.171875,1.28125 -0.484375,0 -0.890625,-0.34375 -0.890625,-0.84375 0,-0.546875 0.40625,-1.375 2.0625,-1.4375 z m 0,0"
               id="path3148"
               inkscape:connector-curvature="0" />
          </symbol>
          <symbol
             overflow="visible"
             id="textext-8ef98a9f-5"
             style="overflow:visible">
            <path
               style="stroke:none"
               d="m 2.546875,0 0,-0.3125 c -0.671875,0 -0.78125,0 -0.78125,-0.4375 l 0,-6.171875 -1.4375,0.109375 0,0.3125 c 0.703125,0 0.78125,0.0625 0.78125,0.5625 l 0,5.1875 c 0,0.4375 -0.109375,0.4375 -0.78125,0.4375 l 0,0.3125 1.109375,-0.03125 z m 0,0"
               id="path3151"
               inkscape:connector-curvature="0" />
          </symbol>
          <symbol
             overflow="visible"
             id="textext-8ef98a9f-6"
             style="overflow:visible">
            <path
               style="stroke:none"
               d="m 3.59375,-1.28125 c 0,-0.515625 -0.296875,-0.828125 -0.421875,-0.9375 C 2.84375,-2.546875 2.453125,-2.625 2.03125,-2.703125 1.46875,-2.8125 0.8125,-2.9375 0.8125,-3.515625 c 0,-0.359375 0.25,-0.765625 1.109375,-0.765625 1.09375,0 1.15625,0.90625 1.171875,1.203125 0,0.09375 0.109375,0.09375 0.109375,0.09375 0.140625,0 0.140625,-0.046875 0.140625,-0.234375 l 0,-1.015625 c 0,-0.15625 0,-0.234375 -0.109375,-0.234375 -0.046875,0 -0.078125,0 -0.203125,0.125 -0.03125,0.03125 -0.125,0.125 -0.171875,0.15625 -0.375,-0.28125 -0.78125,-0.28125 -0.9375,-0.28125 -1.21875,0 -1.59375,0.671875 -1.59375,1.234375 0,0.34375 0.15625,0.625 0.421875,0.84375 0.328125,0.25 0.609375,0.3125 1.328125,0.453125 0.21875,0.046875 1.03125,0.203125 1.03125,0.921875 0,0.5 -0.34375,0.90625 -1.125,0.90625 -0.84375,0 -1.203125,-0.5625 -1.390625,-1.421875 C 0.5625,-1.65625 0.5625,-1.6875 0.453125,-1.6875 c -0.125,0 -0.125,0.0625 -0.125,0.234375 l 0,1.328125 c 0,0.171875 0,0.234375 0.109375,0.234375 0.046875,0 0.0625,-0.015625 0.25,-0.203125 0.015625,-0.015625 0.015625,-0.03125 0.203125,-0.21875 0.4375,0.40625 0.890625,0.421875 1.09375,0.421875 1.140625,0 1.609375,-0.671875 1.609375,-1.390625 z m 0,0"
               id="path3154"
               inkscape:connector-curvature="0" />
          </symbol>
        </g>
      </defs>
      <g
         id="textext-8ef98a9f-7">
        <g
           style="fill:#000000;fill-opacity:1"
           id="g3157">
          <use
             xlink:href="#textext-8ef98a9f-0"
             x="223.43201"
             y="134.765"
             id="use3159"
             width="175.52763"
             height="117.42524" />
          <use
             xlink:href="#textext-8ef98a9f-1"
             x="232.56471"
             y="134.765"
             id="use3161"
             width="175.52763"
             height="117.42524" />
          <use
             xlink:href="#textext-8ef98a9f-2"
             x="237.54602"
             y="134.765"
             id="use3163"
             width="175.52763"
             height="117.42524" />
          <use
             xlink:href="#textext-8ef98a9f-3"
             x="241.44836"
             y="134.765"
             id="use3165"
             width="175.52763"
             height="117.42524" />
          <use
             xlink:href="#textext-8ef98a9f-4"
             x="245.32281"
             y="134.765"
             id="use3167"
             width="175.52763"
             height="117.42524" />
          <use
             xlink:href="#textext-8ef98a9f-5"
             x="250.30412"
             y="134.765"
             id="use3169"
             width="175.52763"
             height="117.42524" />
          <use
             xlink:href="#textext-8ef98a9f-6"
             x="253.07173"
             y="134.765"
             id="use3171"
             width="175.52763"
             height="117.42524" />
        </g>
      </g>
    </g>
    <g
       id="g3320"
       style="stroke-width:0.0000001"
       ns0:page_width=""
       ns0:preamble="/home/aidan/Thesis/images/preamble.tex"
       ns0:text="Athenians"
       transform="matrix(1.25,0,0,1.25,44.141943,81.27061)">
      <defs
         id="defs3322">
        <g
           id="g3324">
          <symbol
             id="textext-88628409-0"
             overflow="visible"
             style="overflow:visible">
            <path
               id="path3327"
               d="m 7.140625,0 0,-0.3125 -0.171875,0 C 6.375,-0.3125 6.234375,-0.375 6.125,-0.703125 L 3.96875,-6.9375 c -0.046875,-0.125 -0.078125,-0.203125 -0.234375,-0.203125 -0.15625,0 -0.1875,0.0625 -0.234375,0.203125 L 1.4375,-0.984375 C 1.25,-0.46875 0.859375,-0.3125 0.3125,-0.3125 L 0.3125,0 1.328125,-0.03125 2.484375,0 l 0,-0.3125 c -0.5,0 -0.75,-0.25 -0.75,-0.5 0,-0.03125 0.015625,-0.140625 0.015625,-0.15625 l 0.46875,-1.296875 2.453125,0 0.53125,1.515625 c 0.015625,0.046875 0.03125,0.109375 0.03125,0.140625 0,0.296875 -0.5625,0.296875 -0.828125,0.296875 l 0,0.3125 c 0.359375,-0.03125 1.0625,-0.03125 1.4375,-0.03125 z M 4.5625,-2.578125 l -2.234375,0 1.109375,-3.25 z m 0,0"
               style="stroke:none"
               inkscape:connector-curvature="0" />
          </symbol>
          <symbol
             id="textext-88628409-1"
             overflow="visible"
             style="overflow:visible">
            <path
               id="path3330"
               d="m 3.3125,-1.234375 0,-0.5625 -0.25,0 0,0.546875 c 0,0.734375 -0.296875,1.109375 -0.671875,1.109375 -0.671875,0 -0.671875,-0.90625 -0.671875,-1.078125 l 0,-2.765625 1.4375,0 0,-0.3125 -1.4375,0 0,-1.828125 -0.25,0 c 0,0.8125 -0.296875,1.875 -1.28125,1.921875 l 0,0.21875 0.84375,0 0,2.75 c 0,1.21875 0.9375,1.34375 1.296875,1.34375 0.703125,0 0.984375,-0.703125 0.984375,-1.34375 z m 0,0"
               style="stroke:none"
               inkscape:connector-curvature="0" />
          </symbol>
          <symbol
             id="textext-88628409-2"
             overflow="visible"
             style="overflow:visible">
            <path
               id="path3333"
               d="m 5.328125,0 0,-0.3125 c -0.515625,0 -0.765625,0 -0.765625,-0.296875 l 0,-1.90625 c 0,-0.859375 0,-1.15625 -0.3125,-1.515625 -0.140625,-0.171875 -0.46875,-0.375 -1.046875,-0.375 -0.84375,0 -1.28125,0.59375 -1.4375,0.953125 l -0.015625,0 0,-3.46875 -1.4375,0.109375 0,0.3125 c 0.703125,0 0.78125,0.0625 0.78125,0.5625 l 0,5.1875 c 0,0.4375 -0.109375,0.4375 -0.78125,0.4375 L 0.3125,0 1.453125,-0.03125 2.5625,0 l 0,-0.3125 c -0.671875,0 -0.78125,0 -0.78125,-0.4375 l 0,-1.84375 C 1.78125,-3.625 2.5,-4.1875 3.125,-4.1875 c 0.640625,0 0.75,0.53125 0.75,1.109375 l 0,2.328125 c 0,0.4375 -0.109375,0.4375 -0.78125,0.4375 l 0,0.3125 1.125,-0.03125 z m 0,0"
               style="stroke:none"
               inkscape:connector-curvature="0" />
          </symbol>
          <symbol
             id="textext-88628409-3"
             overflow="visible"
             style="overflow:visible">
            <path
               id="path3336"
               d="m 4.140625,-1.1875 c 0,-0.09375 -0.078125,-0.125 -0.140625,-0.125 -0.078125,0 -0.109375,0.0625 -0.125,0.140625 -0.34375,1.03125 -1.25,1.03125 -1.34375,1.03125 -0.5,0 -0.890625,-0.296875 -1.125,-0.671875 -0.296875,-0.46875 -0.296875,-1.125 -0.296875,-1.484375 l 2.78125,0 c 0.21875,0 0.25,0 0.25,-0.21875 0,-0.984375 -0.546875,-1.953125 -1.78125,-1.953125 -1.15625,0 -2.078125,1.03125 -2.078125,2.28125 0,1.328125 1.046875,2.296875 2.1875,2.296875 C 3.6875,0.109375 4.140625,-1 4.140625,-1.1875 z m -0.65625,-1.328125 -2.375,0 C 1.171875,-4 2.015625,-4.25 2.359375,-4.25 c 1.015625,0 1.125,1.34375 1.125,1.734375 z m 0,0"
               style="stroke:none"
               inkscape:connector-curvature="0" />
          </symbol>
          <symbol
             id="textext-88628409-4"
             overflow="visible"
             style="overflow:visible">
            <path
               id="path3339"
               d="m 5.328125,0 0,-0.3125 c -0.515625,0 -0.765625,0 -0.765625,-0.296875 l 0,-1.90625 c 0,-0.859375 0,-1.15625 -0.3125,-1.515625 -0.140625,-0.171875 -0.46875,-0.375 -1.046875,-0.375 C 2.46875,-4.40625 2,-3.984375 1.71875,-3.359375 l 0,-1.046875 -1.40625,0.109375 0,0.3125 c 0.703125,0 0.78125,0.0625 0.78125,0.5625 l 0,2.671875 c 0,0.4375 -0.109375,0.4375 -0.78125,0.4375 L 0.3125,0 1.453125,-0.03125 2.5625,0 l 0,-0.3125 c -0.671875,0 -0.78125,0 -0.78125,-0.4375 l 0,-1.84375 C 1.78125,-3.625 2.5,-4.1875 3.125,-4.1875 c 0.640625,0 0.75,0.53125 0.75,1.109375 l 0,2.328125 c 0,0.4375 -0.109375,0.4375 -0.78125,0.4375 l 0,0.3125 1.125,-0.03125 z m 0,0"
               style="stroke:none"
               inkscape:connector-curvature="0" />
          </symbol>
          <symbol
             id="textext-88628409-5"
             overflow="visible"
             style="overflow:visible">
            <path
               id="path3342"
               d="m 2.46875,0 0,-0.3125 c -0.671875,0 -0.703125,-0.046875 -0.703125,-0.4375 l 0,-3.65625 -1.390625,0.109375 0,0.3125 c 0.640625,0 0.734375,0.0625 0.734375,0.546875 l 0,2.6875 c 0,0.4375 -0.109375,0.4375 -0.78125,0.4375 l 0,0.3125 1.09375,-0.03125 C 1.78125,-0.03125 2.125,-0.015625 2.46875,0 z m -0.5625,-6.015625 c 0,-0.28125 -0.21875,-0.53125 -0.515625,-0.53125 -0.34375,0 -0.546875,0.28125 -0.546875,0.53125 C 0.84375,-5.75 1.078125,-5.5 1.375,-5.5 c 0.34375,0 0.53125,-0.265625 0.53125,-0.515625 z m 0,0"
               style="stroke:none"
               inkscape:connector-curvature="0" />
          </symbol>
          <symbol
             id="textext-88628409-6"
             overflow="visible"
             style="overflow:visible">
            <path
               id="path3345"
               d="m 4.8125,-0.890625 0,-0.5625 -0.25,0 0,0.5625 C 4.5625,-0.3125 4.3125,-0.25 4.203125,-0.25 3.875,-0.25 3.84375,-0.703125 3.84375,-0.75 l 0,-1.984375 c 0,-0.421875 0,-0.8125 -0.359375,-1.1875 C 3.09375,-4.3125 2.59375,-4.46875 2.109375,-4.46875 c -0.8125,0 -1.5,0.46875 -1.5,1.125 0,0.296875 0.203125,0.46875 0.453125,0.46875 0.28125,0 0.46875,-0.203125 0.46875,-0.453125 0,-0.125 -0.0625,-0.453125 -0.515625,-0.453125 C 1.28125,-4.140625 1.78125,-4.25 2.09375,-4.25 c 0.484375,0 1.0625,0.390625 1.0625,1.28125 l 0,0.359375 C 2.640625,-2.578125 1.9375,-2.546875 1.3125,-2.25 c -0.75,0.34375 -1,0.859375 -1,1.296875 0,0.8125 0.96875,1.0625 1.59375,1.0625 0.671875,0 1.125,-0.40625 1.3125,-0.859375 0.046875,0.390625 0.3125,0.8125 0.78125,0.8125 0.203125,0 0.8125,-0.140625 0.8125,-0.953125 z m -1.65625,-0.5 c 0,0.9375 -0.71875,1.28125 -1.171875,1.28125 -0.484375,0 -0.890625,-0.34375 -0.890625,-0.84375 0,-0.546875 0.40625,-1.375 2.0625,-1.4375 z m 0,0"
               style="stroke:none"
               inkscape:connector-curvature="0" />
          </symbol>
          <symbol
             id="textext-88628409-7"
             overflow="visible"
             style="overflow:visible">
            <path
               id="path3348"
               d="m 3.59375,-1.28125 c 0,-0.515625 -0.296875,-0.828125 -0.421875,-0.9375 C 2.84375,-2.546875 2.453125,-2.625 2.03125,-2.703125 1.46875,-2.8125 0.8125,-2.9375 0.8125,-3.515625 c 0,-0.359375 0.25,-0.765625 1.109375,-0.765625 1.09375,0 1.15625,0.90625 1.171875,1.203125 0,0.09375 0.109375,0.09375 0.109375,0.09375 0.140625,0 0.140625,-0.046875 0.140625,-0.234375 l 0,-1.015625 c 0,-0.15625 0,-0.234375 -0.109375,-0.234375 -0.046875,0 -0.078125,0 -0.203125,0.125 -0.03125,0.03125 -0.125,0.125 -0.171875,0.15625 -0.375,-0.28125 -0.78125,-0.28125 -0.9375,-0.28125 -1.21875,0 -1.59375,0.671875 -1.59375,1.234375 0,0.34375 0.15625,0.625 0.421875,0.84375 0.328125,0.25 0.609375,0.3125 1.328125,0.453125 0.21875,0.046875 1.03125,0.203125 1.03125,0.921875 0,0.5 -0.34375,0.90625 -1.125,0.90625 -0.84375,0 -1.203125,-0.5625 -1.390625,-1.421875 C 0.5625,-1.65625 0.5625,-1.6875 0.453125,-1.6875 c -0.125,0 -0.125,0.0625 -0.125,0.234375 l 0,1.328125 c 0,0.171875 0,0.234375 0.109375,0.234375 0.046875,0 0.0625,-0.015625 0.25,-0.203125 0.015625,-0.015625 0.015625,-0.03125 0.203125,-0.21875 0.4375,0.40625 0.890625,0.421875 1.09375,0.421875 1.140625,0 1.609375,-0.671875 1.609375,-1.390625 z m 0,0"
               style="stroke:none"
               inkscape:connector-curvature="0" />
          </symbol>
        </g>
      </defs>
      <g
         id="textext-88628409-8">
        <g
           id="g3351"
           style="fill:#000000;fill-opacity:1">
          <use
             id="use3353"
             y="134.765"
             x="223.43201"
             xlink:href="#textext-88628409-0"
             width="175.52763"
             height="117.42524" />
        </g>
        <g
           id="g3355"
           style="fill:#000000;fill-opacity:1">
          <use
             id="use3357"
             y="134.765"
             x="230.625"
             xlink:href="#textext-88628409-1"
             width="175.52763"
             height="117.42524" />
          <use
             id="use3359"
             y="134.765"
             x="234.49945"
             xlink:href="#textext-88628409-2"
             width="175.52763"
             height="117.42524" />
          <use
             id="use3361"
             y="134.765"
             x="240.03467"
             xlink:href="#textext-88628409-3"
             width="175.52763"
             height="117.42524" />
          <use
             id="use3363"
             y="134.765"
             x="244.46304"
             xlink:href="#textext-88628409-4"
             width="175.52763"
             height="117.42524" />
          <use
             id="use3365"
             y="134.765"
             x="249.99828"
             xlink:href="#textext-88628409-5"
             width="175.52763"
             height="117.42524" />
          <use
             id="use3367"
             y="134.765"
             x="252.76588"
             xlink:href="#textext-88628409-6"
             width="175.52763"
             height="117.42524" />
          <use
             id="use3369"
             y="134.765"
             x="257.74719"
             xlink:href="#textext-88628409-4"
             width="175.52763"
             height="117.42524" />
          <use
             id="use3371"
             y="134.765"
             x="263.28241"
             xlink:href="#textext-88628409-7"
             width="175.52763"
             height="117.42524" />
        </g>
      </g>
    </g>
    <g
       id="g3853"
       style="stroke-width:0.0000001"
       ns0:page_width=""
       ns0:preamble="/home/aidan/Thesis/images/preamble.tex"
       ns0:text="Philosophers"
       transform="matrix(1.25,0,0,1.25,14.958463,183.9416)">
      <defs
         id="defs3855">
        <g
           id="g3857">
          <symbol
             id="textext-4e7c4837-0"
             overflow="visible"
             style="overflow:visible">
            <path
               id="path3860"
               d="M 6.21875,-4.953125 C 6.21875,-5.9375 5.234375,-6.8125 3.875,-6.8125 l -3.53125,0 0,0.3125 0.25,0 c 0.765625,0 0.78125,0.109375 0.78125,0.46875 l 0,5.25 c 0,0.359375 -0.015625,0.46875 -0.78125,0.46875 l -0.25,0 0,0.3125 c 0.359375,-0.03125 1.09375,-0.03125 1.46875,-0.03125 0.375,0 1.125,0 1.484375,0.03125 l 0,-0.3125 -0.25,0 c -0.765625,0 -0.78125,-0.109375 -0.78125,-0.46875 l 0,-2.375 1.6875,0 c 1.1875,0 2.265625,-0.796875 2.265625,-1.796875 z m -1.03125,0 c 0,0.46875 0,1.546875 -1.578125,1.546875 l -1.375,0 0,-2.6875 C 2.234375,-6.4375 2.25,-6.5 2.71875,-6.5 l 0.890625,0 C 5.1875,-6.5 5.1875,-5.4375 5.1875,-4.953125 z m 0,0"
               style="stroke:none"
               inkscape:connector-curvature="0" />
          </symbol>
          <symbol
             id="textext-4e7c4837-1"
             overflow="visible"
             style="overflow:visible">
            <path
               id="path3863"
               d="m 5.328125,0 0,-0.3125 c -0.515625,0 -0.765625,0 -0.765625,-0.296875 l 0,-1.90625 c 0,-0.859375 0,-1.15625 -0.3125,-1.515625 -0.140625,-0.171875 -0.46875,-0.375 -1.046875,-0.375 -0.84375,0 -1.28125,0.59375 -1.4375,0.953125 l -0.015625,0 0,-3.46875 -1.4375,0.109375 0,0.3125 c 0.703125,0 0.78125,0.0625 0.78125,0.5625 l 0,5.1875 c 0,0.4375 -0.109375,0.4375 -0.78125,0.4375 L 0.3125,0 1.453125,-0.03125 2.5625,0 l 0,-0.3125 c -0.671875,0 -0.78125,0 -0.78125,-0.4375 l 0,-1.84375 C 1.78125,-3.625 2.5,-4.1875 3.125,-4.1875 c 0.640625,0 0.75,0.53125 0.75,1.109375 l 0,2.328125 c 0,0.4375 -0.109375,0.4375 -0.78125,0.4375 l 0,0.3125 1.125,-0.03125 z m 0,0"
               style="stroke:none"
               inkscape:connector-curvature="0" />
          </symbol>
          <symbol
             id="textext-4e7c4837-2"
             overflow="visible"
             style="overflow:visible">
            <path
               id="path3866"
               d="m 2.46875,0 0,-0.3125 c -0.671875,0 -0.703125,-0.046875 -0.703125,-0.4375 l 0,-3.65625 -1.390625,0.109375 0,0.3125 c 0.640625,0 0.734375,0.0625 0.734375,0.546875 l 0,2.6875 c 0,0.4375 -0.109375,0.4375 -0.78125,0.4375 l 0,0.3125 1.09375,-0.03125 C 1.78125,-0.03125 2.125,-0.015625 2.46875,0 z m -0.5625,-6.015625 c 0,-0.28125 -0.21875,-0.53125 -0.515625,-0.53125 -0.34375,0 -0.546875,0.28125 -0.546875,0.53125 C 0.84375,-5.75 1.078125,-5.5 1.375,-5.5 c 0.34375,0 0.53125,-0.265625 0.53125,-0.515625 z m 0,0"
               style="stroke:none"
               inkscape:connector-curvature="0" />
          </symbol>
          <symbol
             id="textext-4e7c4837-3"
             overflow="visible"
             style="overflow:visible">
            <path
               id="path3869"
               d="m 2.546875,0 0,-0.3125 c -0.671875,0 -0.78125,0 -0.78125,-0.4375 l 0,-6.171875 -1.4375,0.109375 0,0.3125 c 0.703125,0 0.78125,0.0625 0.78125,0.5625 l 0,5.1875 c 0,0.4375 -0.109375,0.4375 -0.78125,0.4375 l 0,0.3125 1.109375,-0.03125 z m 0,0"
               style="stroke:none"
               inkscape:connector-curvature="0" />
          </symbol>
          <symbol
             id="textext-4e7c4837-4"
             overflow="visible"
             style="overflow:visible">
            <path
               id="path3872"
               d="M 4.6875,-2.140625 C 4.6875,-3.40625 3.703125,-4.46875 2.5,-4.46875 c -1.25,0 -2.21875,1.09375 -2.21875,2.328125 0,1.296875 1.03125,2.25 2.203125,2.25 1.203125,0 2.203125,-0.984375 2.203125,-2.25 z M 3.875,-2.21875 c 0,0.359375 0,0.90625 -0.21875,1.34375 -0.234375,0.453125 -0.671875,0.734375 -1.15625,0.734375 -0.4375,0 -0.875,-0.203125 -1.140625,-0.671875 -0.25,-0.4375 -0.25,-1.046875 -0.25,-1.40625 0,-0.390625 0,-0.921875 0.234375,-1.359375 C 1.609375,-4.03125 2.078125,-4.25 2.484375,-4.25 c 0.4375,0 0.859375,0.21875 1.125,0.65625 0.265625,0.421875 0.265625,1 0.265625,1.375 z m 0,0"
               style="stroke:none"
               inkscape:connector-curvature="0" />
          </symbol>
          <symbol
             id="textext-4e7c4837-5"
             overflow="visible"
             style="overflow:visible">
            <path
               id="path3875"
               d="m 3.59375,-1.28125 c 0,-0.515625 -0.296875,-0.828125 -0.421875,-0.9375 C 2.84375,-2.546875 2.453125,-2.625 2.03125,-2.703125 1.46875,-2.8125 0.8125,-2.9375 0.8125,-3.515625 c 0,-0.359375 0.25,-0.765625 1.109375,-0.765625 1.09375,0 1.15625,0.90625 1.171875,1.203125 0,0.09375 0.109375,0.09375 0.109375,0.09375 0.140625,0 0.140625,-0.046875 0.140625,-0.234375 l 0,-1.015625 c 0,-0.15625 0,-0.234375 -0.109375,-0.234375 -0.046875,0 -0.078125,0 -0.203125,0.125 -0.03125,0.03125 -0.125,0.125 -0.171875,0.15625 -0.375,-0.28125 -0.78125,-0.28125 -0.9375,-0.28125 -1.21875,0 -1.59375,0.671875 -1.59375,1.234375 0,0.34375 0.15625,0.625 0.421875,0.84375 0.328125,0.25 0.609375,0.3125 1.328125,0.453125 0.21875,0.046875 1.03125,0.203125 1.03125,0.921875 0,0.5 -0.34375,0.90625 -1.125,0.90625 -0.84375,0 -1.203125,-0.5625 -1.390625,-1.421875 C 0.5625,-1.65625 0.5625,-1.6875 0.453125,-1.6875 c -0.125,0 -0.125,0.0625 -0.125,0.234375 l 0,1.328125 c 0,0.171875 0,0.234375 0.109375,0.234375 0.046875,0 0.0625,-0.015625 0.25,-0.203125 0.015625,-0.015625 0.015625,-0.03125 0.203125,-0.21875 0.4375,0.40625 0.890625,0.421875 1.09375,0.421875 1.140625,0 1.609375,-0.671875 1.609375,-1.390625 z m 0,0"
               style="stroke:none"
               inkscape:connector-curvature="0" />
          </symbol>
          <symbol
             id="textext-4e7c4837-6"
             overflow="visible"
             style="overflow:visible">
            <path
               id="path3878"
               d="m 5.1875,-2.15625 c 0,-1.265625 -0.953125,-2.25 -2.078125,-2.25 -0.78125,0 -1.203125,0.4375 -1.390625,0.65625 l 0,-0.65625 -1.4375,0.109375 0,0.3125 c 0.703125,0 0.78125,0.0625 0.78125,0.5 l 0,4.65625 C 1.0625,1.625 0.953125,1.625 0.28125,1.625 l 0,0.3125 1.109375,-0.03125 1.125,0.03125 0,-0.3125 C 1.859375,1.625 1.75,1.625 1.75,1.171875 l 0,-1.765625 c 0.046875,0.171875 0.46875,0.703125 1.21875,0.703125 1.1875,0 2.21875,-0.984375 2.21875,-2.265625 z m -0.828125,0 c 0,1.203125 -0.6875,2.046875 -1.421875,2.046875 -0.40625,0 -0.78125,-0.203125 -1.046875,-0.609375 C 1.75,-0.921875 1.75,-0.9375 1.75,-1.140625 l 0,-2.21875 C 2.03125,-3.875 2.515625,-4.15625 3.03125,-4.15625 c 0.734375,0 1.328125,0.875 1.328125,2 z m 0,0"
               style="stroke:none"
               inkscape:connector-curvature="0" />
          </symbol>
          <symbol
             id="textext-4e7c4837-7"
             overflow="visible"
             style="overflow:visible">
            <path
               id="path3881"
               d="m 4.140625,-1.1875 c 0,-0.09375 -0.078125,-0.125 -0.140625,-0.125 -0.078125,0 -0.109375,0.0625 -0.125,0.140625 -0.34375,1.03125 -1.25,1.03125 -1.34375,1.03125 -0.5,0 -0.890625,-0.296875 -1.125,-0.671875 -0.296875,-0.46875 -0.296875,-1.125 -0.296875,-1.484375 l 2.78125,0 c 0.21875,0 0.25,0 0.25,-0.21875 0,-0.984375 -0.546875,-1.953125 -1.78125,-1.953125 -1.15625,0 -2.078125,1.03125 -2.078125,2.28125 0,1.328125 1.046875,2.296875 2.1875,2.296875 C 3.6875,0.109375 4.140625,-1 4.140625,-1.1875 z m -0.65625,-1.328125 -2.375,0 C 1.171875,-4 2.015625,-4.25 2.359375,-4.25 c 1.015625,0 1.125,1.34375 1.125,1.734375 z m 0,0"
               style="stroke:none"
               inkscape:connector-curvature="0" />
          </symbol>
          <symbol
             id="textext-4e7c4837-8"
             overflow="visible"
             style="overflow:visible">
            <path
               id="path3884"
               d="m 3.625,-3.796875 c 0,-0.3125 -0.3125,-0.609375 -0.734375,-0.609375 -0.734375,0 -1.09375,0.671875 -1.21875,1.09375 l 0,-1.09375 -1.390625,0.109375 0,0.3125 c 0.703125,0 0.78125,0.0625 0.78125,0.5625 l 0,2.671875 c 0,0.4375 -0.109375,0.4375 -0.78125,0.4375 l 0,0.3125 1.140625,-0.03125 c 0.390625,0 0.859375,0 1.265625,0.03125 l 0,-0.3125 -0.21875,0 c -0.734375,0 -0.75,-0.109375 -0.75,-0.46875 l 0,-1.53125 c 0,-0.984375 0.421875,-1.875 1.171875,-1.875 0.0625,0 0.09375,0 0.109375,0.015625 -0.03125,0 -0.234375,0.125 -0.234375,0.390625 0,0.265625 0.21875,0.421875 0.4375,0.421875 0.171875,0 0.421875,-0.125 0.421875,-0.4375 z m 0,0"
               style="stroke:none"
               inkscape:connector-curvature="0" />
          </symbol>
        </g>
      </defs>
      <g
         id="textext-4e7c4837-9">
        <g
           id="g3887"
           style="fill:#000000;fill-opacity:1">
          <use
             id="use3889"
             y="134.765"
             x="223.43201"
             xlink:href="#textext-4e7c4837-0"
             width="175.52763"
             height="117.42524" />
          <use
             id="use3891"
             y="134.765"
             x="230.21254"
             xlink:href="#textext-4e7c4837-1"
             width="175.52763"
             height="117.42524" />
          <use
             id="use3893"
             y="134.765"
             x="235.74777"
             xlink:href="#textext-4e7c4837-2"
             width="175.52763"
             height="117.42524" />
          <use
             id="use3895"
             y="134.765"
             x="238.51538"
             xlink:href="#textext-4e7c4837-3"
             width="175.52763"
             height="117.42524" />
          <use
             id="use3897"
             y="134.765"
             x="241.28299"
             xlink:href="#textext-4e7c4837-4"
             width="175.52763"
             height="117.42524" />
          <use
             id="use3899"
             y="134.765"
             x="246.26428"
             xlink:href="#textext-4e7c4837-5"
             width="175.52763"
             height="117.42524" />
          <use
             id="use3901"
             y="134.765"
             x="250.19453"
             xlink:href="#textext-4e7c4837-4"
             width="175.52763"
             height="117.42524" />
          <use
             id="use3903"
             y="134.765"
             x="255.17583"
             xlink:href="#textext-4e7c4837-6"
             width="175.52763"
             height="117.42524" />
          <use
             id="use3905"
             y="134.765"
             x="260.71106"
             xlink:href="#textext-4e7c4837-1"
             width="175.52763"
             height="117.42524" />
          <use
             id="use3907"
             y="134.765"
             x="266.24628"
             xlink:href="#textext-4e7c4837-7"
             width="175.52763"
             height="117.42524" />
          <use
             id="use3909"
             y="134.765"
             x="270.67465"
             xlink:href="#textext-4e7c4837-8"
             width="175.52763"
             height="117.42524" />
          <use
             id="use3911"
             y="134.765"
             x="274.577"
             xlink:href="#textext-4e7c4837-5"
             width="175.52763"
             height="117.42524" />
        </g>
      </g>
    </g>
    <rect
       style="fill:#000000;stroke:#000000;stroke-width:1;stroke-miterlimit:4;stroke-opacity:1;stroke-dasharray:none;stroke-dashoffset:0"
       id="rect3449"
       width="44.913078"
       height="12.974889"
       x="169.09718"
       y="342.84305" />
    <rect
       y="238.42207"
       x="168.91429"
       height="118.15527"
       width="210.97098"
       id="rect5767"
       style="fill:none;stroke:#000000;stroke-width:0.56604129;stroke-miterlimit:4;stroke-opacity:1;stroke-dasharray:none;stroke-dashoffset:0" />
    <g
       id="g3281"
       style="fill:#ffffff;stroke-width:0.0000001"
       ns0:page_width=""
       ns0:preamble="/home/aidan/Thesis/images/preamble.tex"
       ns0:text="People"
       transform="matrix(1.25,0,0,1.25,-105.52579,184.30036)">
      <defs
         id="defs3283">
        <g
           id="g3285">
          <symbol
             id="textext-50d84883-0"
             overflow="visible"
             style="overflow:visible">
            <path
               id="path3288"
               d="M 6.21875,-4.953125 C 6.21875,-5.9375 5.234375,-6.8125 3.875,-6.8125 l -3.53125,0 0,0.3125 0.25,0 c 0.765625,0 0.78125,0.109375 0.78125,0.46875 l 0,5.25 c 0,0.359375 -0.015625,0.46875 -0.78125,0.46875 l -0.25,0 0,0.3125 c 0.359375,-0.03125 1.09375,-0.03125 1.46875,-0.03125 0.375,0 1.125,0 1.484375,0.03125 l 0,-0.3125 -0.25,0 c -0.765625,0 -0.78125,-0.109375 -0.78125,-0.46875 l 0,-2.375 1.6875,0 c 1.1875,0 2.265625,-0.796875 2.265625,-1.796875 z m -1.03125,0 c 0,0.46875 0,1.546875 -1.578125,1.546875 l -1.375,0 0,-2.6875 C 2.234375,-6.4375 2.25,-6.5 2.71875,-6.5 l 0.890625,0 C 5.1875,-6.5 5.1875,-5.4375 5.1875,-4.953125 z m 0,0"
               style="stroke:none"
               inkscape:connector-curvature="0" />
          </symbol>
          <symbol
             id="textext-50d84883-1"
             overflow="visible"
             style="overflow:visible">
            <path
               id="path3291"
               d="m 4.140625,-1.1875 c 0,-0.09375 -0.078125,-0.125 -0.140625,-0.125 -0.078125,0 -0.109375,0.0625 -0.125,0.140625 -0.34375,1.03125 -1.25,1.03125 -1.34375,1.03125 -0.5,0 -0.890625,-0.296875 -1.125,-0.671875 -0.296875,-0.46875 -0.296875,-1.125 -0.296875,-1.484375 l 2.78125,0 c 0.21875,0 0.25,0 0.25,-0.21875 0,-0.984375 -0.546875,-1.953125 -1.78125,-1.953125 -1.15625,0 -2.078125,1.03125 -2.078125,2.28125 0,1.328125 1.046875,2.296875 2.1875,2.296875 C 3.6875,0.109375 4.140625,-1 4.140625,-1.1875 z m -0.65625,-1.328125 -2.375,0 C 1.171875,-4 2.015625,-4.25 2.359375,-4.25 c 1.015625,0 1.125,1.34375 1.125,1.734375 z m 0,0"
               style="stroke:none"
               inkscape:connector-curvature="0" />
          </symbol>
          <symbol
             id="textext-50d84883-2"
             overflow="visible"
             style="overflow:visible">
            <path
               id="path3294"
               d="M 4.6875,-2.140625 C 4.6875,-3.40625 3.703125,-4.46875 2.5,-4.46875 c -1.25,0 -2.21875,1.09375 -2.21875,2.328125 0,1.296875 1.03125,2.25 2.203125,2.25 1.203125,0 2.203125,-0.984375 2.203125,-2.25 z M 3.875,-2.21875 c 0,0.359375 0,0.90625 -0.21875,1.34375 -0.234375,0.453125 -0.671875,0.734375 -1.15625,0.734375 -0.4375,0 -0.875,-0.203125 -1.140625,-0.671875 -0.25,-0.4375 -0.25,-1.046875 -0.25,-1.40625 0,-0.390625 0,-0.921875 0.234375,-1.359375 C 1.609375,-4.03125 2.078125,-4.25 2.484375,-4.25 c 0.4375,0 0.859375,0.21875 1.125,0.65625 0.265625,0.421875 0.265625,1 0.265625,1.375 z m 0,0"
               style="stroke:none"
               inkscape:connector-curvature="0" />
          </symbol>
          <symbol
             id="textext-50d84883-3"
             overflow="visible"
             style="overflow:visible">
            <path
               id="path3297"
               d="m 5.1875,-2.15625 c 0,-1.265625 -0.953125,-2.25 -2.078125,-2.25 -0.78125,0 -1.203125,0.4375 -1.390625,0.65625 l 0,-0.65625 -1.4375,0.109375 0,0.3125 c 0.703125,0 0.78125,0.0625 0.78125,0.5 l 0,4.65625 C 1.0625,1.625 0.953125,1.625 0.28125,1.625 l 0,0.3125 1.109375,-0.03125 1.125,0.03125 0,-0.3125 C 1.859375,1.625 1.75,1.625 1.75,1.171875 l 0,-1.765625 c 0.046875,0.171875 0.46875,0.703125 1.21875,0.703125 1.1875,0 2.21875,-0.984375 2.21875,-2.265625 z m -0.828125,0 c 0,1.203125 -0.6875,2.046875 -1.421875,2.046875 -0.40625,0 -0.78125,-0.203125 -1.046875,-0.609375 C 1.75,-0.921875 1.75,-0.9375 1.75,-1.140625 l 0,-2.21875 C 2.03125,-3.875 2.515625,-4.15625 3.03125,-4.15625 c 0.734375,0 1.328125,0.875 1.328125,2 z m 0,0"
               style="stroke:none"
               inkscape:connector-curvature="0" />
          </symbol>
          <symbol
             id="textext-50d84883-4"
             overflow="visible"
             style="overflow:visible">
            <path
               id="path3300"
               d="m 2.546875,0 0,-0.3125 c -0.671875,0 -0.78125,0 -0.78125,-0.4375 l 0,-6.171875 -1.4375,0.109375 0,0.3125 c 0.703125,0 0.78125,0.0625 0.78125,0.5625 l 0,5.1875 c 0,0.4375 -0.109375,0.4375 -0.78125,0.4375 l 0,0.3125 1.109375,-0.03125 z m 0,0"
               style="stroke:none"
               inkscape:connector-curvature="0" />
          </symbol>
        </g>
      </defs>
      <g
         id="textext-50d84883-5"
         style="fill:#ffffff">
        <g
           id="g3303"
           style="fill:#ffffff;fill-opacity:1">
          <use
             id="use3305"
             y="134.765"
             x="223.43201"
             xlink:href="#textext-50d84883-0"
             width="392.90625"
             height="199.46875"
             style="fill:#ffffff" />
        </g>
        <g
           id="g3307"
           style="fill:#ffffff;fill-opacity:1">
          <use
             id="use3309"
             y="134.765"
             x="229.93359"
             xlink:href="#textext-50d84883-1"
             width="392.90625"
             height="199.46875"
             style="fill:#ffffff" />
          <use
             id="use3311"
             y="134.765"
             x="234.36197"
             xlink:href="#textext-50d84883-2"
             width="392.90625"
             height="199.46875"
             style="fill:#ffffff" />
          <use
             id="use3313"
             y="134.765"
             x="239.34326"
             xlink:href="#textext-50d84883-3"
             width="392.90625"
             height="199.46875"
             style="fill:#ffffff" />
          <use
             id="use3315"
             y="134.765"
             x="244.87849"
             xlink:href="#textext-50d84883-4"
             width="392.90625"
             height="199.46875"
             style="fill:#ffffff" />
          <use
             id="use3317"
             y="134.765"
             x="247.6461"
             xlink:href="#textext-50d84883-1"
             width="392.90625"
             height="199.46875"
             style="fill:#ffffff" />
        </g>
      </g>
    </g>
  </g>
</svg>
